<svg width="32" height="54" viewBox="0 0 32 54" fill="none" xmlns="http://www.w3.org/2000/svg">
<path d="M29.1635 53.9018C29.1385 53.8916 29.1143 53.8797 29.0902 53.8669C29.0479 53.8448 29.0074 53.8202 28.9678 53.793C28.9048 53.7496 28.841 53.7071 28.7772 53.6655C28.5229 53.4963 28.266 53.3306 28.0177 53.153C27.8228 53.0136 27.6323 52.8682 27.4547 52.7084C18.8141 44.9679 10.183 37.2172 1.56481 29.4521C1.02596 28.9659 0.444857 28.41 0.182761 27.7674C-0.231077 26.7543 0.0741297 25.7922 0.940602 25.0162C6.81537 19.7541 12.6781 14.4784 18.5451 9.20705C21.6359 6.4294 24.7328 3.65771 27.8142 0.869869C28.4936 0.255356 29.2281 -0.151776 30.1705 0.0556143C31.0551 0.250252 31.6612 0.796768 31.906 1.66202C32.1578 2.55192 31.9 3.33048 31.2171 3.95519C30.1075 4.96918 28.9859 5.96958 27.8676 6.97422C20.541 13.5571 13.2135 20.14 5.8851 26.7203C5.80751 26.79 5.70405 26.8308 5.56524 26.9132C6.54207 27.7938 7.43009 28.5961 8.32071 29.396C15.8172 36.1327 23.2844 42.9025 30.8369 49.5798C31.1551 49.8602 31.4292 50.1926 31.6275 50.5657C31.8051 50.8997 31.9215 51.2686 31.9422 51.6468C31.962 52.0047 31.8931 52.3651 31.7327 52.6863C31.5577 53.0382 31.2801 53.3298 30.955 53.5516C30.5559 53.8253 30.0843 54.0301 29.5894 53.997C29.5101 53.9919 29.4307 53.98 29.3531 53.9621C29.2876 53.9468 29.2247 53.9273 29.1643 53.9018L29.1635 53.9018Z"/>
</svg>
