<svg width="32" height="54" viewBox="0 0 32 54" fill="none" xmlns="http://www.w3.org/2000/svg">
<path d="M2.83641 0.0987168C2.86141 0.108916 2.88555 0.120816 2.90969 0.133565C2.95194 0.155664 2.99246 0.180312 3.03212 0.207511C3.09506 0.250858 3.15886 0.293356 3.22266 0.335003C3.47699 0.504144 3.73392 0.669885 3.98222 0.847524C4.17707 0.986917 4.36761 1.13226 4.54521 1.29205C13.1858 9.03256 21.8169 16.7833 30.4351 24.5484C30.9739 25.0346 31.555 25.5905 31.8171 26.233C32.231 27.2462 31.9258 28.2083 31.0593 28.9843C25.1845 34.2464 19.3218 39.522 13.4548 44.7934C10.3639 47.5711 7.26706 50.3428 4.18569 53.1306C3.50631 53.7451 2.77175 54.1523 1.8294 53.9449C0.944824 53.7502 0.338725 53.2037 0.0938708 52.3385C-0.15788 51.4486 0.0999059 50.67 0.782738 50.0453C1.89234 49.0313 3.01401 48.0309 4.13224 47.0263C11.4589 40.4434 18.7864 33.8605 26.1148 27.2802C26.1924 27.2105 26.2958 27.1697 26.4346 27.0872C25.4578 26.2067 24.5698 25.4043 23.6792 24.6045C16.1827 17.8678 8.71549 11.0979 1.16295 4.42072C0.844814 4.14024 0.570646 3.80791 0.372349 3.43478C0.194744 3.10075 0.0783519 2.73187 0.05766 2.35364C0.0378302 1.99581 0.106803 1.63543 0.267165 1.31415C0.442184 0.962268 0.7198 0.670734 1.04484 0.448897C1.44402 0.175212 1.91562 -0.029626 2.4105 0.00352216C2.48982 0.00862187 2.56914 0.0205212 2.64673 0.0383702C2.71226 0.0536693 2.77519 0.0732182 2.83555 0.0987168H2.83641Z"/>
</svg>
