<svg width="17" height="12" viewBox="0 0 17 12" fill="none" xmlns="http://www.w3.org/2000/svg">
<g clip-path="url(#clip0_131_1685)">
<path d="M2.2372 6.66608C2.86402 7.30498 3.44611 7.8988 4.02874 8.49262C4.79413 9.27344 5.55897 10.0543 6.3249 10.8351C6.51311 11.0271 6.59003 11.2519 6.5142 11.5185C6.44383 11.7667 6.27853 11.9231 6.03468 11.981C5.78046 12.0416 5.56988 11.9509 5.38822 11.765C4.6632 11.0221 3.93545 10.2813 3.20825 9.54002C2.21592 8.5288 1.22359 7.51813 0.231263 6.50802C-0.0747828 6.19636 -0.0786032 5.80679 0.22526 5.49791C1.93934 3.75039 3.6545 2.00399 5.36749 0.255354C5.57152 0.0472097 5.79846 -0.0579748 6.08487 0.0338535C6.52457 0.1741 6.68605 0.713382 6.3991 1.08125C6.35272 1.1408 6.29653 1.19256 6.24362 1.24654C4.97306 2.54327 3.70251 3.83944 2.43195 5.13616C2.38067 5.18848 2.33103 5.24357 2.24702 5.33373L2.52088 5.33373C7.08102 5.33373 11.6417 5.33373 16.2018 5.3354C16.3224 5.3354 16.4495 5.34153 16.563 5.37881C16.8543 5.47509 17.03 5.77507 16.9945 6.07949C16.9579 6.39171 16.7054 6.63936 16.3944 6.66441C16.3202 6.67053 16.2449 6.66719 16.1696 6.66719C11.6226 6.66719 7.0761 6.66719 2.52906 6.66719C2.44996 6.66719 2.37086 6.66719 2.23665 6.66719L2.2372 6.66608Z" fill="black"/>
</g>
<defs>
<clipPath id="clip0_131_1685">
<rect width="17" height="12" fill="white" transform="translate(17 12) rotate(-180)"/>
</clipPath>
</defs>
</svg>
