<svg width="17" height="12" viewBox="0 0 17 12" fill="none" xmlns="http://www.w3.org/2000/svg">
<g clip-path="url(#clip0_131_1683)">
<path d="M14.7628 5.33392C14.136 4.69502 13.5539 4.1012 12.9713 3.50738C12.2059 2.72656 11.441 1.94574 10.6751 1.16492C10.4869 0.972917 10.41 0.748077 10.4858 0.481497C10.5562 0.233283 10.7215 0.0768964 10.9653 0.0190168C11.2195 -0.0416455 11.4301 0.0490696 11.6118 0.234952C12.3368 0.977926 13.0645 1.71867 13.7917 2.45998C14.7841 3.4712 15.7764 4.48187 16.7687 5.49198C17.0748 5.80364 17.0786 6.19321 16.7747 6.50209C15.0607 8.24961 13.3455 9.99601 11.6325 11.7446C11.4285 11.9528 11.2015 12.058 10.9151 11.9661C10.4754 11.8259 10.314 11.2866 10.6009 10.9187C10.6473 10.8592 10.7035 10.8074 10.7564 10.7535C12.0269 9.45673 13.2975 8.16056 14.568 6.86384C14.6193 6.81152 14.669 6.75642 14.753 6.66627H14.4791C9.91899 6.66627 5.3583 6.66627 0.798166 6.6646C0.677602 6.6646 0.550492 6.65847 0.437021 6.62119C0.145704 6.52491 -0.0299582 6.22493 0.00550162 5.92051C0.0420525 5.60829 0.294636 5.36064 0.605591 5.33559C0.679784 5.32947 0.755068 5.33281 0.830352 5.33281C5.3774 5.33281 9.9239 5.33281 14.4709 5.33281C14.55 5.33281 14.6291 5.33281 14.7633 5.33281L14.7628 5.33392Z" fill="black"/>
</g>
<defs>
<clipPath id="clip0_131_1683">
<rect width="17" height="12" fill="white"/>
</clipPath>
</defs>
</svg>
