<svg width="12" height="7" viewBox="0 0 12 7" fill="none" xmlns="http://www.w3.org/2000/svg">
<path d="M10.9817 1.4433C10.9798 1.4472 10.9776 1.45098 10.9753 1.45475C10.9712 1.46135 10.9666 1.46768 10.9616 1.47388C10.9535 1.48371 10.9457 1.49368 10.938 1.50365C10.9066 1.54339 10.8759 1.58353 10.843 1.62233C10.8172 1.65277 10.7903 1.68254 10.7607 1.71029C9.32729 3.06037 7.89196 4.40896 6.45395 5.75553C6.36392 5.83972 6.26098 5.93052 6.14199 5.97147C5.95436 6.03613 5.77619 5.98844 5.63248 5.85306C4.65802 4.93514 3.68104 4.0191 2.70484 3.1024C2.19046 2.61946 1.67718 2.13558 1.16091 1.65412C1.04711 1.54797 0.971712 1.43319 1.01012 1.28595C1.04616 1.14774 1.14737 1.05304 1.3076 1.01478C1.4724 0.975446 1.61658 1.01572 1.73227 1.12242C1.92005 1.29579 2.10531 1.47105 2.29135 1.64577C3.51041 2.79054 4.72948 3.93545 5.94807 5.08049C5.96098 5.09262 5.96853 5.10878 5.9838 5.13047C6.14686 4.97784 6.29545 4.83909 6.44356 4.69993C7.69112 3.52862 8.94481 2.36189 10.1813 1.18182C10.2333 1.13211 10.2948 1.08928 10.3639 1.05829C10.4258 1.03054 10.4941 1.01236 10.5641 1.00912C10.6304 1.00603 10.6971 1.0168 10.7566 1.04186C10.8218 1.0692 10.8758 1.11258 10.9169 1.16337C10.9676 1.22574 11.0055 1.29943 10.9993 1.37675C10.9984 1.38914 10.9962 1.40154 10.9929 1.41366C10.9901 1.4239 10.9864 1.43387 10.9817 1.4433Z" fill="#760000" stroke="#760000"/>
</svg>
