<svg width="25" height="25" viewBox="0 0 25 25" fill="none" xmlns="http://www.w3.org/2000/svg">
<path d="M21.875 20.5078H3.125C2.04805 20.5078 1.17188 19.6316 1.17188 18.5547V5.85938C1.17188 4.78242 2.04805 3.90625 3.125 3.90625H21.875C22.952 3.90625 23.8281 4.78242 23.8281 5.85938V18.5547C23.8281 19.6316 22.952 20.5078 21.875 20.5078ZM3.125 4.6875C2.47871 4.6875 1.95312 5.21309 1.95312 5.85938V18.5547C1.95312 19.201 2.47871 19.7266 3.125 19.7266H21.875C22.5213 19.7266 23.0469 19.201 23.0469 18.5547V5.85938C23.0469 5.21309 22.5213 4.6875 21.875 4.6875H3.125Z" fill="#BCBCBC"/>
<path d="M12.5 12.7031C12.2582 12.703 12.0223 12.6278 11.825 12.4881L1.56307 6.58868C1.47328 6.53701 1.40768 6.4518 1.38069 6.35178C1.3537 6.25176 1.36752 6.14512 1.41912 6.05529C1.47091 5.96561 1.55611 5.90012 1.65609 5.87314C1.75606 5.84616 1.86265 5.8599 1.95252 5.91134L12.2681 11.8447C12.3352 11.8943 12.4165 11.921 12.4999 11.921C12.5833 11.921 12.6645 11.8943 12.7316 11.8447L12.7683 11.8207L23.0474 5.91134C23.137 5.86316 23.2419 5.85182 23.3397 5.87971C23.4375 5.90761 23.5206 5.97255 23.5713 6.06074C23.622 6.14893 23.6364 6.25342 23.6113 6.352C23.5862 6.45058 23.5236 6.53549 23.4369 6.58868L13.175 12.4881C12.9776 12.6278 12.7418 12.703 12.5 12.7031Z" fill="#BCBCBC"/>
</svg>
