<svg width="25" height="25" viewBox="0 0 25 25" fill="none" xmlns="http://www.w3.org/2000/svg">
<path d="M17.7292 1.5625H7.27083C4.11821 1.5625 1.5625 4.11821 1.5625 7.27083V17.7292C1.5625 20.8818 4.11821 23.4375 7.27083 23.4375H17.7292C20.8818 23.4375 23.4375 20.8818 23.4375 17.7292V7.27083C23.4375 4.11821 20.8818 1.5625 17.7292 1.5625Z" stroke="#BCBCBC" stroke-linecap="round" stroke-linejoin="round"/>
<path d="M12.4999 18.2292C15.6641 18.2292 18.2291 15.6642 18.2291 12.5C18.2291 9.33591 15.6641 6.77087 12.4999 6.77087C9.33579 6.77087 6.77075 9.33591 6.77075 12.5C6.77075 15.6642 9.33579 18.2292 12.4999 18.2292Z" stroke="#BCBCBC" stroke-linecap="round" stroke-linejoin="round"/>
<path d="M18.7501 5.72917C19.0377 5.72917 19.2709 5.49598 19.2709 5.20833C19.2709 4.92069 19.0377 4.6875 18.7501 4.6875C18.4624 4.6875 18.2292 4.92069 18.2292 5.20833C18.2292 5.49598 18.4624 5.72917 18.7501 5.72917Z" stroke="#BCBCBC" stroke-linecap="round" stroke-linejoin="round"/>
</svg>
