<svg width="18" height="16" viewBox="0 0 18 16" fill="none" xmlns="http://www.w3.org/2000/svg">
<path d="M0 4.3875C0.0449108 4.1013 0.0805753 3.81327 0.136053 3.52889C0.36369 2.36217 0.938284 1.43098 1.90607 0.775495C2.48991 0.380197 3.14068 0.1757 3.82491 0.0679748C4.9578 -0.110503 6.03082 0.0538244 7.02238 0.667769C7.67271 1.07037 8.27945 1.53551 8.82806 2.0787C8.88222 2.13211 8.93726 2.18506 8.99538 2.24166C9.18735 2.06318 9.36391 1.88653 9.5528 1.72494C10.1868 1.18403 10.8429 0.677355 11.6081 0.344136C12.5812 -0.0799198 13.5802 -0.0707905 14.5907 0.149682C15.6902 0.389782 16.5902 0.954429 17.2304 1.9267C17.6764 2.60455 17.8767 3.36913 17.9661 4.17661C18.1198 5.56016 17.7345 6.78896 17.0032 7.92601C16.5686 8.60113 16.0521 9.20366 15.4898 9.76557C13.5072 11.7462 11.524 13.7259 9.54003 15.7051C9.14772 16.0967 8.8514 16.0976 8.46261 15.7092C6.33243 13.5812 4.18463 11.4718 2.08087 9.31549C1.06069 8.26973 0.299406 7.03545 0.0519557 5.52455C0.0374257 5.43646 0.0176121 5.34973 0 5.26209C0 4.97041 0 4.67873 0 4.3875ZM9.00198 14.3932C9.06406 14.333 9.11118 14.2878 9.15741 14.2417C11.0005 12.4003 12.8524 10.5676 14.681 8.71068C15.1345 8.25056 15.5466 7.73658 15.9205 7.20389C16.6139 6.2161 16.868 5.10552 16.6254 3.89406C16.4893 3.21576 16.2441 2.59496 15.7162 2.13165C14.8325 1.35612 13.0228 0.991403 11.7107 1.76968C10.8821 2.26083 10.1745 2.89577 9.52638 3.61197C9.19571 3.9776 8.81882 3.96527 8.47362 3.62018C8.02319 3.17011 7.56219 2.73008 7.08535 2.31059C6.67234 1.94678 6.19065 1.69618 5.68122 1.50036C5.09342 1.27395 4.49285 1.30454 3.89491 1.40679C3.16313 1.53231 2.46349 1.79432 2.01086 2.42972C1.15844 3.62612 1.07214 4.94941 1.59962 6.31013C1.95714 7.2331 2.57709 7.97577 3.25824 8.65955C5.12292 10.5306 6.99376 12.3948 8.86241 14.2617C8.90379 14.3033 8.94738 14.3421 9.00154 14.3928L9.00198 14.3932Z" fill="#616161"/>
</svg>
