<svg width="29" height="35" viewBox="0 0 29 35" fill="none" xmlns="http://www.w3.org/2000/svg">
<path d="M28.9899 15.2996C28.7912 10.7958 27.2762 6.94672 24.6074 4.17C22.022 1.48183 18.4739 0 14.6227 0C10.7715 0 7.18048 1.47804 4.54135 4.16319C1.78071 6.97624 0.222004 10.8579 0.0334954 15.3904L0 34.2417C0 34.4377 0.0740014 34.6208 0.211878 34.7646C0.356765 34.9115 0.561632 35 0.770394 35H9.96994C9.45193 34.6208 8.98377 34.1826 8.57638 33.6915C7.5092 32.4064 6.86967 30.774 6.86967 28.9985C6.86967 25.0155 10.0915 21.7468 14.1389 21.5281C14.1685 21.5266 14.1989 21.5251 14.2285 21.5243C14.3423 21.5198 14.456 21.516 14.5713 21.516C14.6975 21.516 14.8221 21.5198 14.9467 21.5251C14.9662 21.5251 14.9857 21.5273 15.0052 21.5281C19.0526 21.7476 22.2768 25.0155 22.2768 28.9985C22.2768 30.7748 21.6372 32.4064 20.5701 33.6915C20.1627 34.1819 19.6945 34.6201 19.1765 35H28.2249C28.6526 35 28.9992 34.6602 28.9992 34.2417V15.4169C28.9992 15.3775 28.9961 15.3382 28.9891 15.2988L28.9899 15.2996ZM19.9765 23.2203C19.8386 23.0992 19.6953 22.9834 19.5496 22.8714C20.8645 17.8455 22.2986 12.8695 23.7108 7.97976C23.9142 7.2729 24.1182 6.56226 24.3231 5.85162C24.7141 6.33068 25.0717 6.84001 25.3965 7.37659C25.3716 7.44848 25.3459 7.52038 25.321 7.59228C23.5138 12.7174 21.6762 17.9371 19.9773 23.2203H19.9765ZM25.7143 7.93208C26.008 8.47244 26.2705 9.03853 26.4995 9.62884C24.5459 14.346 22.5806 19.1374 20.7336 23.987C20.616 23.8515 20.4937 23.7198 20.3675 23.5927C22.0657 18.3011 23.904 13.07 25.7143 7.93208ZM26.7449 10.3069C26.9389 10.8844 27.1024 11.483 27.2364 12.1006C25.2532 16.2955 23.2731 20.548 21.3802 24.8482C21.2867 24.7044 21.1893 24.5644 21.0865 24.4267C22.8968 19.6595 24.8232 14.9477 26.7449 10.3069ZM27.3907 12.9051C27.4904 13.4916 27.5636 14.0932 27.6095 14.7093C25.6762 18.3571 23.7537 22.0488 21.8951 25.7761C21.8289 25.6353 21.7595 25.4968 21.6855 25.3606C23.5262 21.161 25.4542 17.0062 27.3907 12.9051ZM27.6539 15.6613V17.3702C25.8374 20.4701 24.0341 23.5987 22.2744 26.7531C22.2339 26.6222 22.1903 26.4927 22.1428 26.3648C23.9336 22.7617 25.786 19.1918 27.6539 15.6613ZM27.6547 21.494C25.9597 23.9196 24.274 26.3611 22.6094 28.8146C22.607 28.7253 22.6047 28.6368 22.6 28.5482C24.2608 25.8517 25.9511 23.1726 27.6547 20.5132V21.4933V21.494ZM22.579 29.7251C24.2507 27.2488 25.9472 24.7854 27.6555 22.3371V23.0803C25.9465 25.3394 24.2452 27.6083 22.5619 29.8885C22.5681 29.834 22.5743 29.7796 22.579 29.7251ZM27.6555 25.5982C26.149 27.3184 24.6448 29.0409 23.1469 30.7679C24.6425 28.9047 26.1467 27.0482 27.6555 25.1963V25.5982ZM24.0287 30.4872C25.2345 29.0992 26.445 27.7135 27.6555 26.3293V26.6078C26.4458 27.9004 25.236 29.193 24.0294 30.4879C24.024 30.494 24.0185 30.4993 24.0139 30.5053C24.0193 30.4993 24.024 30.4932 24.0294 30.4879L24.0287 30.4872ZM27.6555 27.3124V27.4872C26.7768 28.3681 25.8989 29.249 25.0195 30.13C25.8974 29.1908 26.7761 28.2516 27.6555 27.3131V27.3124ZM27.6539 18.3245V19.6179C25.9223 22.3144 24.2031 25.0314 22.5136 27.7672C22.4949 27.6537 22.4746 27.5409 22.4513 27.4289C24.151 24.3691 25.8951 21.3344 27.6539 18.3245ZM22.3492 30.9829C24.1019 28.605 25.874 26.2369 27.6547 23.8803V24.4327C25.8779 26.6116 24.105 28.7972 22.3469 30.9912C22.3469 30.9882 22.3484 30.9859 22.3492 30.9829ZM23.6236 5.06076C23.7327 5.17352 23.8386 5.28932 23.943 5.40662C23.7085 6.22246 23.474 7.03754 23.2396 7.84883C21.846 12.6818 20.4291 17.598 19.1251 22.5642C18.9631 22.4559 18.7964 22.353 18.6258 22.2561C19.5777 17.5503 20.6254 12.8831 21.6583 8.29232C21.9699 6.90434 22.283 5.50803 22.5946 4.10719C22.9537 4.4031 23.2972 4.72095 23.6236 5.06076ZM16.0373 1.3789C16.6706 1.44626 17.2914 1.55978 17.8959 1.71644C17.6684 4.21692 17.427 6.7053 17.1863 9.17324C16.7944 13.176 16.3995 17.2378 16.0645 21.3245C15.8573 21.2867 15.6478 21.2549 15.4351 21.2329C15.5154 17.4028 15.6439 13.5937 15.7717 9.83545C15.8675 7.03754 15.9609 4.21617 16.0381 1.3789H16.0373ZM17.6708 9.21941C17.9083 6.78022 18.1475 4.3206 18.3734 1.85039C18.9779 2.03354 19.5644 2.26058 20.1292 2.53152C19.8098 4.57489 19.4842 6.60919 19.1578 8.62834C18.47 12.8982 17.7728 17.2332 17.1496 21.6015C16.9518 21.5364 16.7508 21.4766 16.5459 21.4267C16.8809 17.3203 17.2774 13.2396 17.6708 9.21941ZM19.6392 8.70251C19.9555 6.7333 20.2741 4.75198 20.5856 2.7631C21.1379 3.0575 21.6676 3.39427 22.1693 3.77192C21.8406 5.25148 21.5103 6.72649 21.1808 8.19167C20.1588 12.7386 19.1212 17.3589 18.1786 22.02C17.9956 21.9307 17.8086 21.8467 17.6178 21.771C18.2433 17.3717 18.9467 13.0034 19.6392 8.70251ZM13.4714 10.5764C13.575 14.0864 13.6801 17.6457 13.8227 21.2224C13.6116 21.2413 13.4036 21.2693 13.198 21.3041C12.8614 17.9741 12.5553 14.6601 12.2539 11.3884C11.9602 8.18864 11.6611 4.95935 11.3323 1.71568C11.9337 1.56129 12.5499 1.44928 13.1777 1.38117C13.293 4.46515 13.3841 7.534 13.4722 10.5756L13.4714 10.5764ZM10.6749 12.3344C10.1701 9.08318 9.66147 5.80092 9.12165 2.50805C9.68095 2.2462 10.2605 2.02521 10.8572 1.84736C11.1812 5.06076 11.4772 8.26054 11.7693 11.43C12.0716 14.7191 12.3801 18.0521 12.7181 21.3994C12.5179 21.4456 12.3208 21.4978 12.1269 21.5584C11.6237 18.4623 11.1462 15.3783 10.6749 12.3344ZM11.6611 21.7196C11.4772 21.7892 11.2957 21.8641 11.1181 21.9466C10.477 19.0723 9.8531 16.2108 9.2385 13.3826C8.54288 10.1753 7.83714 6.93991 7.1057 3.69473C7.60267 3.33524 8.12458 3.01436 8.66674 2.73358C9.19487 5.97574 9.69575 9.20503 10.1935 12.4048C10.6694 15.4797 11.1524 18.5932 11.6611 21.7203V21.7196ZM6.67882 4.01788C7.3908 7.18966 8.08018 10.3493 8.76099 13.4825C9.38494 16.3515 10.0175 19.2569 10.6702 22.1737C10.5066 22.2622 10.347 22.356 10.1912 22.4552C9.4309 19.7897 8.68933 17.1356 7.95554 14.5125C7.09713 11.4429 6.23014 8.34832 5.33979 5.24315C5.39587 5.18336 5.45196 5.12433 5.5096 5.06606C5.87961 4.68993 6.26987 4.34028 6.67805 4.01788H6.67882ZM4.95654 5.66848C5.81729 8.67224 6.65546 11.6669 7.48583 14.6366C8.23441 17.3134 8.9939 20.0205 9.76741 22.742C9.6272 22.8442 9.49166 22.9517 9.35846 23.0629C8.52419 20.6616 7.70316 18.2701 6.89304 15.9081C5.89441 12.9989 4.88643 10.067 3.86054 7.12457C4.19393 6.61297 4.56005 6.1271 4.95654 5.66923V5.66848ZM4.46735 29.0069C3.4399 27.9761 2.4031 26.934 1.35929 25.8858V25.5263C2.70222 26.9756 4.04048 28.4211 5.37017 29.8598C5.06949 29.5745 4.76803 29.2914 4.46735 29.0076V29.0069ZM1.36163 24.8157V24.3517C3.1509 26.436 4.93161 28.5127 6.69986 30.5787C6.69986 30.581 6.70064 30.584 6.70141 30.5863C4.93317 28.6731 3.1509 26.7485 1.36163 24.8164V24.8157ZM6.61651 27.8921C4.87553 25.4885 3.12598 23.0773 1.36864 20.6623L1.3702 19.6822C3.14156 22.3523 4.90279 25.0155 6.6539 27.6673C6.64066 27.7422 6.62741 27.8172 6.61651 27.8928V27.8921ZM6.54406 28.6148C6.54095 28.6708 6.54095 28.7276 6.53939 28.7844C4.83424 26.6244 3.10884 24.4426 1.36552 22.2418L1.36708 21.4819C3.10027 23.8651 4.82567 26.2438 6.54406 28.6148ZM6.55731 29.5866C6.55964 29.6176 6.56198 29.6486 6.56432 29.6797C4.84047 27.6666 3.10572 25.6436 1.36318 23.6139V23.0167C3.11507 25.2266 4.84748 27.4191 6.55731 29.5866ZM1.37097 18.8089L1.37331 17.5291C3.02471 20.2824 4.66443 23.0266 6.2948 25.7549C6.48954 26.0795 6.68428 26.4065 6.8798 26.7334C6.85098 26.8242 6.82449 26.9158 6.79956 27.0089C5.00094 24.2859 3.19141 21.5508 1.37175 18.8089H1.37097ZM6.71544 25.5157C4.94797 22.5566 3.16804 19.5786 1.37487 16.5922L1.37643 15.4298C1.38344 15.2701 1.39201 15.1119 1.40213 14.9545C2.78401 17.5269 4.15576 20.0924 5.51817 22.6429C6.0837 23.7009 6.65312 24.765 7.22488 25.8351C7.17814 25.9373 7.13374 26.0409 7.09167 26.1454C6.96626 25.935 6.84085 25.7246 6.71544 25.5157ZM5.95127 22.4226C4.47124 19.6527 2.98187 16.8669 1.48003 14.0736C1.5439 13.4938 1.63193 12.9278 1.74566 12.3768C2.96395 14.9446 4.16979 17.5034 5.36705 20.0478C6.13355 21.6742 6.90784 23.3179 7.68836 24.9701C7.61981 25.0798 7.55438 25.191 7.49206 25.3046C6.97561 24.3389 6.46149 23.377 5.95127 22.4234V22.4226ZM5.81106 19.8495C4.52577 17.1189 3.23036 14.3717 1.92092 11.6155C2.06892 11.032 2.24653 10.4659 2.45217 9.91945C3.54817 12.5834 4.63093 15.239 5.7059 17.878C6.55107 19.9539 7.40638 22.0511 8.26947 24.1595C8.17833 24.2715 8.0903 24.385 8.0054 24.5016C7.26772 22.9411 6.53627 21.3873 5.81106 19.8487V19.8495ZM8.62701 23.7471C7.79508 21.7173 6.97171 19.6989 6.15848 17.7009C5.02041 14.9083 3.87456 12.0953 2.71235 9.2739C2.9546 8.71008 3.2288 8.16896 3.53337 7.65206C4.51331 10.4659 5.47611 13.2713 6.43267 16.0571C7.26538 18.485 8.109 20.9416 8.96586 23.4103C8.85057 23.52 8.73684 23.6313 8.62857 23.7471H8.62701ZM14.3111 21.1943C14.1678 17.623 14.0618 14.069 13.9598 10.5635C13.8702 7.51205 13.7798 4.43261 13.6638 1.33803C13.9808 1.31533 14.301 1.30398 14.6235 1.30398C14.946 1.30398 15.2451 1.31533 15.5528 1.33652C15.4764 4.18287 15.3806 7.01332 15.2848 9.81956C15.1571 13.5703 15.0285 17.3725 14.9475 21.1974C14.8237 21.1921 14.699 21.1883 14.5736 21.1883C14.4856 21.1883 14.3991 21.1921 14.3119 21.1951L14.3111 21.1943Z" fill="#451212"/>
</svg>
