<svg width="19" height="20" viewBox="0 0 19 20" fill="none" xmlns="http://www.w3.org/2000/svg">
<path d="M0 4.45114C0.0306872 3.43991 0.389216 2.69326 1.13696 2.17741C1.89749 1.65285 2.68309 1.16259 3.4697 0.677446C4.05327 0.31768 4.77903 0.556671 5.02657 1.19688C5.56871 2.5996 6.0909 4.01001 6.61412 5.41939C6.73738 5.75152 6.68112 6.0729 6.4883 6.36972C6.20752 6.80318 5.93184 7.24022 5.64492 7.67009C5.3406 8.12556 5.34674 8.56618 5.64492 9.02574C6.92662 10.9965 8.55151 12.6213 10.5267 13.8961C10.9518 14.1704 11.3737 14.1812 11.7992 13.9074C12.2335 13.628 12.6697 13.3516 13.0988 13.0635C13.4507 12.8271 13.8128 12.7933 14.2072 12.9422C15.5298 13.4427 16.8555 13.935 18.1786 14.434C18.9928 14.741 19.2281 15.4555 18.7617 16.1857C18.329 16.8628 17.9004 17.5429 17.4631 18.2169C16.8851 19.1084 16.0637 19.5823 14.9994 19.4999C14.4793 19.4599 13.9617 19.3018 13.4574 19.1493C9.73962 18.0245 6.66424 15.9206 4.15249 12.9765C2.18289 10.6675 0.829067 8.03651 0.107917 5.08419C0.0490996 4.84417 0.0240383 4.59546 0 4.45063V4.45114Z" fill="#B90707"/>
<path d="M10.5228 0.512939C14.307 0.578444 17.6775 3.21758 18.6886 6.91297C18.8866 7.6366 18.9904 8.37353 18.9996 9.12325C19.0057 9.62477 18.6984 9.9743 18.2473 9.97993C17.7926 9.98556 17.4765 9.64831 17.4683 9.14781C17.4141 5.84954 15.2338 3.06712 12.0438 2.2739C11.4741 2.13214 10.8736 2.10911 10.2849 2.05179C9.89214 2.01341 9.57453 1.7345 9.54333 1.35478C9.5106 0.956633 9.76735 0.607614 10.1607 0.532386C10.2783 0.509869 10.4016 0.518569 10.5228 0.512939Z" fill="#B90707"/>
<path d="M10.4321 3.62378C13.2671 3.67956 15.6352 5.90468 15.8679 8.71218C15.8812 8.87134 15.8945 9.03049 15.8945 9.18965C15.8945 9.63078 15.5712 9.96906 15.1498 9.97827C14.7192 9.98748 14.3775 9.65535 14.3698 9.20551C14.3494 8.05764 13.9387 7.07814 13.1106 6.28185C12.3404 5.54133 11.4136 5.17031 10.3467 5.15189C10.0337 5.14626 9.78823 5.02446 9.63684 4.74709C9.49721 4.49121 9.50642 4.2297 9.6619 3.98252C9.845 3.69184 10.1243 3.59819 10.4327 3.62327L10.4321 3.62378Z" fill="#B90707"/>
<path d="M12.7949 9.15635C12.8011 9.61386 12.4927 9.96237 12.0671 9.97925C11.6176 9.99768 11.2872 9.67476 11.2636 9.19422C11.2376 8.66199 10.8545 8.28176 10.3185 8.25668C9.85049 8.23468 9.52981 7.90715 9.54157 7.46448C9.55334 7.03 9.90419 6.71732 10.3722 6.72499C11.6738 6.747 12.7781 7.85495 12.7949 9.15635Z" fill="#B90707"/>
</svg>
