<svg width="25" height="25" viewBox="0 0 25 25" fill="none" xmlns="http://www.w3.org/2000/svg">
<path d="M23.4833 2.00053C23.4104 1.99951 23.3381 2.01382 23.2711 2.04252L1.31693 11.4924C1.22185 11.5333 1.14099 11.6016 1.08459 11.6887C1.02818 11.7758 0.998753 11.8777 1.00004 11.9815C1.00133 12.0854 1.03327 12.1866 1.09182 12.2722C1.15036 12.3578 1.23289 12.4241 1.32895 12.4626L6.33084 14.4723L8.34487 20.5417C8.3731 20.6266 8.42245 20.7028 8.48825 20.7632C8.55406 20.8235 8.63413 20.8659 8.72085 20.8865C8.80758 20.907 8.89809 20.9049 8.98379 20.8804C9.06949 20.8559 9.14752 20.8098 9.21049 20.7465L12.6291 17.3135L18.9513 22.8701C19.02 22.9304 19.1031 22.9716 19.1925 22.9897C19.2819 23.0078 19.3745 23.002 19.461 22.973C19.5475 22.944 19.6249 22.8928 19.6856 22.8245C19.7464 22.7562 19.7882 22.673 19.807 22.5834L23.9888 2.63314C24.0047 2.5572 24.0037 2.47865 23.9857 2.40315C23.9678 2.32766 23.9334 2.25709 23.8851 2.19654C23.8368 2.13599 23.7756 2.08696 23.7062 2.05297C23.6367 2.01899 23.5606 2.0009 23.4833 2V2.00053ZM22.7583 3.40646L18.9676 21.4904L11.7175 15.1185L17.0335 10.2639C17.136 10.1703 17.1974 10.0397 17.204 9.90067C17.2107 9.76167 17.1621 9.6257 17.069 9.52264C16.9758 9.41965 16.8458 9.35804 16.7074 9.35135C16.569 9.34465 16.4336 9.39342 16.331 9.48694L10.5811 14.7369C10.5266 14.7866 10.4831 14.8473 10.4536 14.9151C10.4241 14.9828 10.4092 15.0561 10.4098 15.13C10.4105 15.204 10.4267 15.277 10.4573 15.3442C10.488 15.4114 10.5325 15.4714 10.5879 15.5202L11.8408 16.6206L9.06988 19.403L7.24664 13.9095C7.22244 13.8371 7.18283 13.771 7.13056 13.7156C7.07829 13.6602 7.01462 13.6169 6.94399 13.5887L2.88927 11.9591L22.7583 3.40646Z" fill="#BCBCBC"/>
</svg>
