<svg width="35" height="41" viewBox="0 0 35 41" fill="none" xmlns="http://www.w3.org/2000/svg">
<path d="M34.9968 17.115C34.923 19.1543 34.9102 21.1983 34.7586 23.2327C34.583 25.5831 34.174 27.9022 32.9544 29.9759C31.8582 31.8395 30.2038 32.9469 28.0708 33.2781C25.969 33.6037 23.8616 33.894 21.7502 34.1442C20.8401 34.2524 19.9139 34.222 18.9949 34.2516C18.5282 34.2669 18.0607 34.2877 17.594 34.2821C16.4344 34.2677 15.2717 34.2829 14.1161 34.2043C12.8154 34.1153 11.5212 33.9389 10.2245 33.7954C9.92461 33.7625 9.83239 33.9678 9.75059 34.1851C9.40497 35.1033 9.05695 36.0198 8.72176 36.9412C8.28392 38.1489 7.86131 39.3613 7.42107 40.5682C7.38418 40.6684 7.26149 40.7366 7.1789 40.82C7.11555 40.719 7.00329 40.6211 6.99767 40.5169C6.97522 40.0927 6.98003 39.6669 6.98404 39.2419C6.99767 37.6926 7.01932 36.1441 7.02574 34.5949C7.02734 34.2765 7.00087 33.9533 6.93993 33.6414C6.88219 33.3463 6.73706 33.0825 6.38422 33.0456C4.50296 32.8499 3.11487 31.8852 2.13014 30.3047C1.25928 28.9078 0.827856 27.3569 0.537568 25.7531C0.170298 23.7267 0.0708582 21.6795 0.0419898 19.6266C0.0179328 17.9057 -0.0229597 16.184 0.0163333 14.464C0.0716644 12.0142 0.248886 9.57158 0.859933 7.18352C1.2272 5.74732 1.72198 4.36725 2.70591 3.21412C3.18304 2.6544 3.77083 2.26467 4.44924 1.99443C6.64323 1.12197 8.91341 0.547005 11.2638 0.328086C12.8547 0.179735 14.4505 0.0570448 16.0471 0.0169498C17.5779 -0.0215414 19.1152 0.00411937 20.6428 0.108366C22.3268 0.223038 24.0019 0.471627 25.6827 0.638422C27.6145 0.830076 29.3995 1.474 31.1156 2.34326C32.0241 2.80355 32.6031 3.583 33.0666 4.44905C33.8573 5.92695 34.2631 7.53155 34.5357 9.17384C34.9727 11.8041 34.9487 14.4584 35 17.1142L34.9968 17.115ZM9.21011 4.89571L9.17563 4.79467C8.63194 4.98953 8.06661 5.13948 7.54858 5.38807C5.58393 6.33351 4.43159 8.22118 5.11802 10.444C5.54062 11.8145 6.15647 13.14 6.80762 14.4231C8.72175 18.196 11.3239 21.4365 14.5508 24.1774C17.3197 26.5293 20.4094 28.3521 23.7397 29.7778C24.3724 30.0489 25.0332 30.2317 25.7469 30.0369C27.5504 29.5453 28.8575 28.4419 29.6882 26.7948C30.2904 25.6007 30.1389 24.8301 29.1469 23.9424C28.4838 23.349 27.7637 22.815 27.0363 22.3001C26.2457 21.7412 25.4502 21.1751 24.597 20.7252C23.7782 20.2946 22.9042 20.3603 22.1696 20.9786C21.7991 21.2905 21.4952 21.6899 21.1945 22.0756C20.7663 22.6257 20.2218 22.94 19.5394 22.7741C18.9428 22.6289 18.3486 22.4068 17.8033 22.1237C15.307 20.8238 13.4498 18.9105 12.3768 16.2843C12.0208 15.4134 11.9454 14.5385 12.6398 13.7856C12.9245 13.4768 13.291 13.2403 13.6302 12.9837C14.2869 12.4865 14.8619 11.6188 14.3487 10.5427C13.4538 8.66784 12.2405 7.03036 10.781 5.5693C10.3608 5.1483 9.84682 4.85882 9.21172 4.8941L9.21011 4.89571ZM18.5803 4.58136C18.367 4.57174 18.1537 4.55169 17.9412 4.5541C17.6413 4.55811 17.3991 4.65995 17.2973 4.9783C17.1321 5.49152 17.363 5.80666 17.9941 5.85317C19.3686 5.95421 20.6925 6.27818 21.9763 6.75611C24.2457 7.60051 26.0179 9.02468 27.0933 11.2427C27.9457 13.0005 28.3691 14.8633 28.4918 16.8031C28.5287 17.3837 28.7019 17.5938 29.1638 17.5922C29.6128 17.5914 29.8005 17.3556 29.8069 16.7758C29.8213 15.5193 29.7091 14.2795 29.3402 13.0711C28.5608 10.5194 27.0893 8.44251 24.9658 6.84833C23.083 5.43458 20.9652 4.61745 18.5819 4.58216L18.5803 4.58136ZM26.6827 15.1849C26.6971 15.1833 26.7116 15.1809 26.726 15.1793C26.6675 14.6917 26.6474 14.1969 26.5448 13.719C26.1246 11.772 25.026 10.2692 23.4382 9.10488C22.1038 8.12656 20.5835 7.67028 18.9508 7.54358C18.6517 7.52032 18.3983 7.58447 18.2644 7.89721C18.0358 8.42727 18.2684 8.77209 18.881 8.91563C19.7799 9.12573 20.6885 9.327 21.557 9.63253C23.3051 10.2484 24.4446 11.4817 24.9145 13.282C25.1278 14.0983 25.2537 14.9379 25.4069 15.7695C25.4927 16.2346 25.6771 16.4262 26.066 16.4038C26.5167 16.3781 26.6795 16.1945 26.6819 15.7061C26.6827 15.5329 26.6819 15.3589 26.6819 15.1857L26.6827 15.1849ZM20.1208 10.671C20.0141 10.671 19.9066 10.6646 19.8008 10.6718C19.3782 10.6999 19.1456 10.9404 19.112 11.3502C19.0783 11.7672 19.375 11.8586 19.6773 11.9428C19.8305 11.9853 19.9917 11.9997 20.1472 12.035C21.3284 12.3045 22.0982 12.9941 22.3508 14.2066C22.407 14.4776 22.4382 14.7567 22.5192 15.0197C22.6082 15.3092 22.8159 15.5016 23.1383 15.4784C23.4486 15.4567 23.6579 15.2787 23.7125 14.9652C23.751 14.7454 23.7886 14.5161 23.7686 14.2964C23.6531 13.0647 22.9811 12.1385 22.0525 11.3991C21.5016 10.9605 20.8673 10.6413 20.1208 10.6694V10.671Z" fill="#881717"/>
</svg>
