<svg width="20" height="21" viewBox="0 0 20 21" fill="none" xmlns="http://www.w3.org/2000/svg">
<path d="M20 9.9227V11.0945C19.9885 11.1505 19.9709 11.2064 19.9671 11.2631C19.8697 12.6588 19.508 13.9854 18.8236 15.2017C16.9811 18.4765 14.1721 20.2607 10.4189 20.4906C8.62315 20.601 6.90328 20.2162 5.3275 19.3387C2.03721 17.507 0.247598 14.6912 0.0184353 10.9305C-0.101894 8.95934 0.376358 7.10311 1.40491 5.4132C2.98605 2.8151 5.28075 1.22405 8.27749 0.665345C8.65304 0.595603 9.03549 0.560348 9.4141 0.509766C9.80498 0.509766 10.1951 0.509766 10.586 0.509766C10.6358 0.521262 10.6856 0.538889 10.7362 0.541954C12.138 0.638521 13.4662 1.00563 14.694 1.68466C17.5091 3.24122 19.2344 5.60327 19.8422 8.7685C19.915 9.1494 19.9479 9.53797 20 9.9227ZM12.6032 13.291C12.6293 13.3861 12.6461 13.4489 12.6638 13.511C12.955 14.5418 14.0564 14.9917 14.9822 14.4506C15.5731 14.105 15.9042 13.5508 16.0889 12.9216C16.6768 10.9213 16.5342 8.9808 15.4873 7.15523C14.6756 5.74045 13.4478 4.82614 11.8828 4.38852C10.4511 3.98769 9.02246 4.05054 7.62755 4.57169C6.13072 5.1304 4.9987 6.12135 4.29665 7.55682C3.43135 9.32568 3.33784 11.1566 4.01614 13.0082C4.4645 14.2322 5.25315 15.207 6.36141 15.8922C7.77778 16.7667 9.31907 17.0916 10.9615 16.7467C11.5034 16.6333 12.0276 16.4241 12.5457 16.2218C12.8354 16.1083 12.9228 15.7826 12.7933 15.5136C12.6699 15.2561 12.381 15.1473 12.0989 15.2538C12.0138 15.286 11.9311 15.3243 11.8475 15.3603C10.7937 15.8225 9.70305 15.9183 8.58559 15.6592C7.17996 15.3335 6.07323 14.5786 5.35279 13.3148C4.61012 12.0127 4.48826 10.6178 4.84311 9.18083C5.23399 7.59744 6.16521 6.43481 7.64672 5.73432C8.68293 5.24459 9.77739 5.1212 10.9025 5.28214C12.2484 5.47528 13.3827 6.08227 14.1974 7.17592C15.4551 8.86507 15.6145 10.7473 15.0182 12.7178C14.9378 12.9829 14.7485 13.2435 14.5438 13.4367C14.1943 13.7662 13.7659 13.5945 13.6785 13.1217C13.654 12.9883 13.6517 12.8496 13.6517 12.7132C13.6502 11.2225 13.6509 9.73187 13.6502 8.24199C13.6502 8.15768 13.6502 8.07261 13.6417 7.98831C13.6172 7.75762 13.49 7.60587 13.27 7.53536C13.0477 7.46485 12.8607 7.53383 12.7067 7.70014C12.6653 7.74459 12.6331 7.79747 12.5933 7.85189C11.7372 7.02034 10.7178 6.68696 9.55283 6.79502C8.62162 6.88086 7.82299 7.25716 7.20065 7.96302C6.39284 8.8804 6.12995 9.96562 6.284 11.1581C6.6105 13.6804 9.0079 14.9058 11.219 14.1686C11.7387 13.9954 12.1893 13.7049 12.604 13.291H12.6032Z" fill="#B90707"/>
<path d="M9.94283 13.3055C8.37472 13.3071 7.23963 12.0954 7.31857 10.4959C7.37222 9.41452 7.80909 8.55079 8.82768 8.08942C10.3621 7.39352 12.3088 8.20208 12.5418 10.2032C12.6223 10.896 12.5119 11.5528 12.141 12.1506C11.6857 12.884 10.8748 13.304 9.94283 13.3048V13.3055Z" fill="#B90707"/>
</svg>
