<svg width="35" height="36" viewBox="0 0 35 36" fill="none" xmlns="http://www.w3.org/2000/svg">
<path d="M34.9879 17.5374C34.9879 18.4007 34.9867 19.2628 34.9879 20.126C34.9903 20.9245 35.0011 21.7229 34.9999 22.5201C34.9963 23.7772 35.0059 25.0343 34.9699 26.2913C34.9495 27.0141 34.779 27.7189 34.5665 28.4141C34.2315 29.5115 33.7032 30.5092 32.9948 31.4001C31.8998 32.7772 30.5335 33.811 28.873 34.4209C27.8321 34.8027 26.7563 35.0152 25.6421 35.014C24.1305 35.014 22.6189 35.0164 21.1072 35.0152C19.3315 35.0152 17.5557 35.0128 15.78 35.0092C13.5456 35.0056 11.31 35.002 9.07557 34.996C7.75966 34.9924 6.5266 34.643 5.34756 34.0811C3.63304 33.2647 2.29434 32.0268 1.32062 30.4023C0.690281 29.3506 0.280838 28.2124 0.0971395 26.9937C-0.000112806 26.3526 0.0082882 25.7114 0.00348562 25.0691C-0.00371826 23.8168 0.00228497 22.5645 0.00348562 21.3123C0.00348562 20.1152 0.00348562 18.9182 0.00348562 17.7211C0.00348562 16.5241 0.00348562 15.327 0.00348562 14.13C0.00348562 12.933 -0.000115149 11.7359 0.00468743 10.5389C0.00828937 9.8509 -0.0133105 9.15933 0.0467218 8.47616C0.158382 7.21668 0.529368 6.02564 1.1441 4.91865C2.12022 3.1621 3.5106 1.83539 5.31156 0.948109C6.16522 0.527883 7.06811 0.25654 8.01061 0.110061C8.74541 -0.0040004 9.48259 0.0080043 10.2198 0.00320172C11.2271 -0.00400215 12.2345 0.00320172 13.243 0.00320172C15.1989 0.00440237 17.1535 0.00680718 19.1094 0.00680718C20.9356 0.00680718 22.7605 -0.000400215 24.5867 0.00320172C25.2098 0.00440237 25.8342 0.00920671 26.4561 0.0500287C27.377 0.111262 28.2643 0.340587 29.1156 0.697178C31.5073 1.70092 33.2194 3.39863 34.2567 5.77591C34.6553 6.6884 34.8727 7.64651 34.9675 8.63465C34.9831 8.79793 34.9807 8.96362 34.9807 9.12811C34.9831 10.5245 34.9831 11.922 34.9867 13.3184C34.9891 14.0712 34.9963 14.8252 34.9987 15.578C35.0011 16.2311 34.9987 16.8843 34.9987 17.5386H34.9855L34.9879 17.5374ZM32.3225 17.5266C32.3225 17.5266 32.3285 17.5266 32.3321 17.5266C32.3321 16.823 32.3321 16.1195 32.3321 15.4171C32.3297 13.5321 32.3225 11.6459 32.3249 9.76085C32.3249 9.04407 32.2769 8.33688 32.086 7.64291C31.7438 6.40505 31.1026 5.34848 30.1613 4.47801C29.0447 3.44546 27.7288 2.84033 26.21 2.72026C25.5652 2.66864 24.9145 2.67464 24.2661 2.67464C22.53 2.67224 20.7939 2.68304 19.059 2.68184C17.198 2.68184 15.3382 2.67464 13.4772 2.67223C12.2597 2.66983 11.0422 2.68184 9.82598 2.66743C8.31196 2.64943 6.90722 2.9772 5.63934 3.84407C4.65481 4.51643 3.91279 5.3917 3.3713 6.43986C2.85863 7.434 2.65933 8.50497 2.65692 9.61677C2.65572 10.5052 2.66173 11.3925 2.66173 12.281C2.66173 13.478 2.66173 14.6751 2.66173 15.8733C2.66173 17.0704 2.66173 18.2674 2.66173 19.4657C2.66173 20.6627 2.66173 21.8598 2.66173 23.058C2.66173 23.9117 2.66054 24.7641 2.67135 25.6178C2.68575 26.8328 2.97509 27.9759 3.60783 29.0204C4.56954 30.6077 5.94791 31.6474 7.74167 32.1289C8.49087 32.3294 9.25686 32.345 10.0265 32.3402C11.4733 32.3306 12.92 32.3438 14.3668 32.3438C16.0681 32.3438 17.7695 32.3366 19.4696 32.3366C21.4698 32.3366 23.4701 32.3402 25.4704 32.3426C26.3985 32.3438 27.2966 32.1877 28.1539 31.8311C29.4469 31.2932 30.4735 30.4288 31.2419 29.2569C31.9035 28.2484 32.2456 27.1366 32.3129 25.9396C32.3405 25.4425 32.3201 24.943 32.3213 24.4435C32.3213 23.0868 32.3225 21.7301 32.3237 20.3734C32.3237 19.426 32.3237 18.4775 32.3237 17.5302L32.3225 17.5266Z" fill="#881717"/>
<path d="M17.5266 9.44446C21.616 9.39883 25.4233 12.6874 25.5661 17.2607C25.7054 21.7535 22.1851 25.5427 17.5434 25.5835C13.1262 25.622 9.61554 22.1173 9.43304 17.8778C9.22773 13.086 13.1346 9.37002 17.5266 9.44446ZM22.8839 17.5128C22.9331 14.7597 20.6639 12.0042 17.2529 12.1171C14.5322 12.2071 12.2269 14.5148 12.1033 17.2439C11.9568 20.4724 14.6246 23.025 17.7223 22.9001C20.539 22.786 22.9079 20.4388 22.8851 17.5128H22.8839Z" fill="#881717"/>
<path d="M28.2725 8.75063C28.2472 9.70634 27.5208 10.7857 26.2818 10.7629C25.1808 10.7437 24.2815 10.0161 24.2383 8.73622C24.2023 7.66885 25.1724 6.72995 26.2458 6.72754C27.3443 6.72514 28.2689 7.64723 28.2713 8.74943L28.2725 8.75063Z" fill="#881717"/>
</svg>
