<svg width="15" height="21" viewBox="0 0 15 21" fill="none" xmlns="http://www.w3.org/2000/svg">
<path d="M7.88735 0C8.08297 0.0269403 8.27858 0.0484926 8.4742 0.078127C10.9572 0.457986 12.8456 1.77537 14.0428 4.03566C15.2374 6.28788 15.3104 8.64246 14.2671 10.9917C13.2082 13.3732 11.8023 15.5419 10.2817 17.6298C9.50707 18.6939 8.68286 19.7203 7.87691 20.7602C7.63174 21.0781 7.36309 21.0781 7.11531 20.7764C5.19043 18.4353 3.41943 15.9729 1.90143 13.3274C1.3537 12.371 0.832053 11.3931 0.451249 10.3478C-0.0130178 9.06273 -0.117347 7.73727 0.130435 6.39564C0.636434 3.67197 2.14661 1.75382 4.5827 0.616934C5.32605 0.269403 6.11896 0.080821 6.94056 0.0323284C6.99272 0.0296344 7.04228 0.0107761 7.09444 0C7.35787 0 7.62391 0 7.88735 0ZM7.48568 11.7433C9.62444 11.7487 11.3798 9.93829 11.3772 7.72919C11.3772 5.52547 9.64791 3.73663 7.50133 3.71777C5.37039 3.69891 3.60722 5.50661 3.5994 7.7211C3.59157 9.92752 5.33649 11.7352 7.48568 11.7406V11.7433Z" fill="#B90707"/>
</svg>
