<svg xmlns="http://www.w3.org/2000/svg" xmlns:xlink="http://www.w3.org/1999/xlink"><symbol id="anchor" viewBox="0 0 20 14">
<path d="M20 1H5.34286V13M5.34286 13L9.68571 8.42857M5.34286 13L0.999999 8.42857"/>
</symbol><symbol id="arrow-left" viewBox="0 0 80 80">
<circle cx="40" cy="40" r="39.5" transform="rotate(-180 40 40)" stroke="#070707"/>
<path d="M57 40.9554L23.3277 40.5536M22 40.5536L23.3277 40.5536M23.3277 40.5536C26.5346 42.2946 33.1704 47.4643 34.0585 51M23.3277 40.5536C26.1646 38.6786 32.2823 32.8929 34.0585 30" stroke="#070707" stroke-width="2" stroke-linecap="round"/>
</symbol><symbol id="arrow-right" viewBox="0 0 80 80">
<circle cx="40" cy="40" r="39.5" stroke="#070707"/>
<path d="M23 39.0446L56.6723 39.4464M58 39.4464H56.6723M56.6723 39.4464C53.4654 37.7054 46.8296 32.5357 45.9415 29M56.6723 39.4464C53.8354 41.3214 47.7177 47.1071 45.9415 50" stroke="#070707" stroke-width="2" stroke-linecap="round"/>
</symbol><symbol id="close" viewBox="0 0 37 37">
<line x1="10.0147" y1="10.0147" x2="26.9853" y2="26.9853" stroke="#234842" stroke-linecap="round"/>
<line x1="10.0146" y1="26.9853" x2="26.9852" y2="10.0147" stroke="#234842" stroke-linecap="round"/>
</symbol><symbol id="email" viewBox="0 0 25 25">
<path d="M21.875 20.5078H3.125C2.04805 20.5078 1.17188 19.6316 1.17188 18.5547V5.85938C1.17188 4.78242 2.04805 3.90625 3.125 3.90625H21.875C22.952 3.90625 23.8281 4.78242 23.8281 5.85938V18.5547C23.8281 19.6316 22.952 20.5078 21.875 20.5078ZM3.125 4.6875C2.47871 4.6875 1.95312 5.21309 1.95312 5.85938V18.5547C1.95312 19.201 2.47871 19.7266 3.125 19.7266H21.875C22.5213 19.7266 23.0469 19.201 23.0469 18.5547V5.85938C23.0469 5.21309 22.5213 4.6875 21.875 4.6875H3.125Z" fill="#BCBCBC"/>
<path d="M12.5 12.7031C12.2582 12.703 12.0223 12.6278 11.825 12.4881L1.56307 6.58868C1.47328 6.53701 1.40768 6.4518 1.38069 6.35178C1.3537 6.25176 1.36752 6.14512 1.41912 6.05529C1.47091 5.96561 1.55611 5.90012 1.65609 5.87314C1.75606 5.84616 1.86265 5.8599 1.95252 5.91134L12.2681 11.8447C12.3352 11.8943 12.4165 11.921 12.4999 11.921C12.5833 11.921 12.6645 11.8943 12.7316 11.8447L12.7683 11.8207L23.0474 5.91134C23.137 5.86316 23.2419 5.85182 23.3397 5.87971C23.4375 5.90761 23.5206 5.97255 23.5713 6.06074C23.622 6.14893 23.6364 6.25342 23.6113 6.352C23.5862 6.45058 23.5236 6.53549 23.4369 6.58868L13.175 12.4881C12.9776 12.6278 12.7418 12.703 12.5 12.7031Z" fill="#BCBCBC"/>
</symbol><symbol id="error" viewBox="0 0 50 50">
<circle style="fill:#D75A4A;" cx="25" cy="25" r="25"/>
<polyline style="fill:none;stroke:#FFFFFF;stroke-width:2;stroke-linecap:round;stroke-miterlimit:10;" points="16,34 25,25 34,16 
	"/>
<polyline style="fill:none;stroke:#FFFFFF;stroke-width:2;stroke-linecap:round;stroke-miterlimit:10;" points="16,16 25,25 34,34 
	"/>
</symbol><symbol id="instagram" viewBox="0 0 25 25">
<path d="M17.7292 1.5625H7.27083C4.11821 1.5625 1.5625 4.11821 1.5625 7.27083V17.7292C1.5625 20.8818 4.11821 23.4375 7.27083 23.4375H17.7292C20.8818 23.4375 23.4375 20.8818 23.4375 17.7292V7.27083C23.4375 4.11821 20.8818 1.5625 17.7292 1.5625Z" stroke="#BCBCBC" stroke-linecap="round" stroke-linejoin="round"/>
<path d="M12.4999 18.2292C15.6641 18.2292 18.2291 15.6642 18.2291 12.5C18.2291 9.33591 15.6641 6.77087 12.4999 6.77087C9.33579 6.77087 6.77075 9.33591 6.77075 12.5C6.77075 15.6642 9.33579 18.2292 12.4999 18.2292Z" stroke="#BCBCBC" stroke-linecap="round" stroke-linejoin="round"/>
<path d="M18.7501 5.72917C19.0377 5.72917 19.2709 5.49598 19.2709 5.20833C19.2709 4.92069 19.0377 4.6875 18.7501 4.6875C18.4624 4.6875 18.2292 4.92069 18.2292 5.20833C18.2292 5.49598 18.4624 5.72917 18.7501 5.72917Z" stroke="#BCBCBC" stroke-linecap="round" stroke-linejoin="round"/>
</symbol><symbol id="success" viewBox="0 0 50 50">
<circle style="fill:#25AE88;" cx="25" cy="25" r="25"/>
<polyline style="fill:none;stroke:#FFFFFF;stroke-width:2;stroke-linecap:round;stroke-linejoin:round;stroke-miterlimit:10;" points="
	38,15 22,33 12,25 "/>
</symbol><symbol id="telegram" viewBox="0 0 25 25">
<path d="M23.4833 2.00053C23.4104 1.99951 23.3381 2.01382 23.2711 2.04252L1.31693 11.4924C1.22185 11.5333 1.14099 11.6016 1.08459 11.6887C1.02818 11.7758 0.998753 11.8777 1.00004 11.9815C1.00133 12.0854 1.03327 12.1866 1.09182 12.2722C1.15036 12.3578 1.23289 12.4241 1.32895 12.4626L6.33084 14.4723L8.34487 20.5417C8.3731 20.6266 8.42245 20.7028 8.48825 20.7632C8.55406 20.8235 8.63413 20.8659 8.72085 20.8865C8.80758 20.907 8.89809 20.9049 8.98379 20.8804C9.06949 20.8559 9.14752 20.8098 9.21049 20.7465L12.6291 17.3135L18.9513 22.8701C19.02 22.9304 19.1031 22.9716 19.1925 22.9897C19.2819 23.0078 19.3745 23.002 19.461 22.973C19.5475 22.944 19.6249 22.8928 19.6856 22.8245C19.7464 22.7562 19.7882 22.673 19.807 22.5834L23.9888 2.63314C24.0047 2.5572 24.0037 2.47865 23.9857 2.40315C23.9678 2.32766 23.9334 2.25709 23.8851 2.19654C23.8368 2.13599 23.7756 2.08696 23.7062 2.05297C23.6367 2.01899 23.5606 2.0009 23.4833 2V2.00053ZM22.7583 3.40646L18.9676 21.4904L11.7175 15.1185L17.0335 10.2639C17.136 10.1703 17.1974 10.0397 17.204 9.90067C17.2107 9.76167 17.1621 9.6257 17.069 9.52264C16.9758 9.41965 16.8458 9.35804 16.7074 9.35135C16.569 9.34465 16.4336 9.39342 16.331 9.48694L10.5811 14.7369C10.5266 14.7866 10.4831 14.8473 10.4536 14.9151C10.4241 14.9828 10.4092 15.0561 10.4098 15.13C10.4105 15.204 10.4267 15.277 10.4573 15.3442C10.488 15.4114 10.5325 15.4714 10.5879 15.5202L11.8408 16.6206L9.06988 19.403L7.24664 13.9095C7.22244 13.8371 7.18283 13.771 7.13056 13.7156C7.07829 13.6602 7.01462 13.6169 6.94399 13.5887L2.88927 11.9591L22.7583 3.40646Z" fill="#BCBCBC"/>
</symbol><symbol id="up-arrow" viewBox="0 0 115.4 122.88">
<path d="M24.94,67.88A14.66,14.66,0,0,1,4.38,47L47.83,4.21a14.66,14.66,0,0,1,20.56,0L111,46.15A14.66,14.66,0,0,1,90.46,67.06l-18-17.69-.29,59.17c-.1,19.28-29.42,19-29.33-.25L43.14,50,24.94,67.88Z"/>
</symbol></svg>