<svg xmlns="http://www.w3.org/2000/svg" xmlns:xlink="http://www.w3.org/1999/xlink"><symbol id="arrow-down" viewBox="0 0 12 7">
<path d="M10.9817 1.4433C10.9798 1.4472 10.9776 1.45098 10.9753 1.45475C10.9712 1.46135 10.9666 1.46768 10.9616 1.47388C10.9535 1.48371 10.9457 1.49368 10.938 1.50365C10.9066 1.54339 10.8759 1.58353 10.843 1.62233C10.8172 1.65277 10.7903 1.68254 10.7607 1.71029C9.32729 3.06037 7.89196 4.40896 6.45395 5.75553C6.36392 5.83972 6.26098 5.93052 6.14199 5.97147C5.95436 6.03613 5.77619 5.98844 5.63248 5.85306C4.65802 4.93514 3.68104 4.0191 2.70484 3.1024C2.19046 2.61946 1.67718 2.13558 1.16091 1.65412C1.04711 1.54797 0.971712 1.43319 1.01012 1.28595C1.04616 1.14774 1.14737 1.05304 1.3076 1.01478C1.4724 0.975446 1.61658 1.01572 1.73227 1.12242C1.92005 1.29579 2.10531 1.47105 2.29135 1.64577C3.51041 2.79054 4.72948 3.93545 5.94807 5.08049C5.96098 5.09262 5.96853 5.10878 5.9838 5.13047C6.14686 4.97784 6.29545 4.83909 6.44356 4.69993C7.69112 3.52862 8.94481 2.36189 10.1813 1.18182C10.2333 1.13211 10.2948 1.08928 10.3639 1.05829C10.4258 1.03054 10.4941 1.01236 10.5641 1.00912C10.6304 1.00603 10.6971 1.0168 10.7566 1.04186C10.8218 1.0692 10.8758 1.11258 10.9169 1.16337C10.9676 1.22574 11.0055 1.29943 10.9993 1.37675C10.9984 1.38914 10.9962 1.40154 10.9929 1.41366C10.9901 1.4239 10.9864 1.43387 10.9817 1.4433Z" fill="#760000" stroke="#760000"/>
</symbol><symbol id="arrow-left" viewBox="0 0 32 54">
<path d="M29.1635 53.9018C29.1385 53.8916 29.1143 53.8797 29.0902 53.8669C29.0479 53.8448 29.0074 53.8202 28.9678 53.793C28.9048 53.7496 28.841 53.7071 28.7772 53.6655C28.5229 53.4963 28.266 53.3306 28.0177 53.153C27.8228 53.0136 27.6323 52.8682 27.4547 52.7084C18.8141 44.9679 10.183 37.2172 1.56481 29.4521C1.02596 28.9659 0.444857 28.41 0.182761 27.7674C-0.231077 26.7543 0.0741297 25.7922 0.940602 25.0162C6.81537 19.7541 12.6781 14.4784 18.5451 9.20705C21.6359 6.4294 24.7328 3.65771 27.8142 0.869869C28.4936 0.255356 29.2281 -0.151776 30.1705 0.0556143C31.0551 0.250252 31.6612 0.796768 31.906 1.66202C32.1578 2.55192 31.9 3.33048 31.2171 3.95519C30.1075 4.96918 28.9859 5.96958 27.8676 6.97422C20.541 13.5571 13.2135 20.14 5.8851 26.7203C5.80751 26.79 5.70405 26.8308 5.56524 26.9132C6.54207 27.7938 7.43009 28.5961 8.32071 29.396C15.8172 36.1327 23.2844 42.9025 30.8369 49.5798C31.1551 49.8602 31.4292 50.1926 31.6275 50.5657C31.8051 50.8997 31.9215 51.2686 31.9422 51.6468C31.962 52.0047 31.8931 52.3651 31.7327 52.6863C31.5577 53.0382 31.2801 53.3298 30.955 53.5516C30.5559 53.8253 30.0843 54.0301 29.5894 53.997C29.5101 53.9919 29.4307 53.98 29.3531 53.9621C29.2876 53.9468 29.2247 53.9273 29.1643 53.9018L29.1635 53.9018Z"/>
</symbol><symbol id="arrow-right" viewBox="0 0 32 54">
<path d="M2.83641 0.0987168C2.86141 0.108916 2.88555 0.120816 2.90969 0.133565C2.95194 0.155664 2.99246 0.180312 3.03212 0.207511C3.09506 0.250858 3.15886 0.293356 3.22266 0.335003C3.47699 0.504144 3.73392 0.669885 3.98222 0.847524C4.17707 0.986917 4.36761 1.13226 4.54521 1.29205C13.1858 9.03256 21.8169 16.7833 30.4351 24.5484C30.9739 25.0346 31.555 25.5905 31.8171 26.233C32.231 27.2462 31.9258 28.2083 31.0593 28.9843C25.1845 34.2464 19.3218 39.522 13.4548 44.7934C10.3639 47.5711 7.26706 50.3428 4.18569 53.1306C3.50631 53.7451 2.77175 54.1523 1.8294 53.9449C0.944824 53.7502 0.338725 53.2037 0.0938708 52.3385C-0.15788 51.4486 0.0999059 50.67 0.782738 50.0453C1.89234 49.0313 3.01401 48.0309 4.13224 47.0263C11.4589 40.4434 18.7864 33.8605 26.1148 27.2802C26.1924 27.2105 26.2958 27.1697 26.4346 27.0872C25.4578 26.2067 24.5698 25.4043 23.6792 24.6045C16.1827 17.8678 8.71549 11.0979 1.16295 4.42072C0.844814 4.14024 0.570646 3.80791 0.372349 3.43478C0.194744 3.10075 0.0783519 2.73187 0.05766 2.35364C0.0378302 1.99581 0.106803 1.63543 0.267165 1.31415C0.442184 0.962268 0.7198 0.670734 1.04484 0.448897C1.44402 0.175212 1.91562 -0.029626 2.4105 0.00352216C2.48982 0.00862187 2.56914 0.0205212 2.64673 0.0383702C2.71226 0.0536693 2.77519 0.0732182 2.83555 0.0987168H2.83641Z"/>
</symbol><symbol id="close" viewBox="0 0 37 37">
<line x1="10.0147" y1="10.0147" x2="26.9853" y2="26.9853" stroke="#234842" stroke-linecap="round"/>
<line x1="10.0146" y1="26.9853" x2="26.9852" y2="10.0147" stroke="#234842" stroke-linecap="round"/>
</symbol><symbol id="email" viewBox="0 0 20 21">
<path d="M20 9.9227V11.0945C19.9885 11.1505 19.9709 11.2064 19.9671 11.2631C19.8697 12.6588 19.508 13.9854 18.8236 15.2017C16.9811 18.4765 14.1721 20.2607 10.4189 20.4906C8.62315 20.601 6.90328 20.2162 5.3275 19.3387C2.03721 17.507 0.247598 14.6912 0.0184353 10.9305C-0.101894 8.95934 0.376358 7.10311 1.40491 5.4132C2.98605 2.8151 5.28075 1.22405 8.27749 0.665345C8.65304 0.595603 9.03549 0.560348 9.4141 0.509766C9.80498 0.509766 10.1951 0.509766 10.586 0.509766C10.6358 0.521262 10.6856 0.538889 10.7362 0.541954C12.138 0.638521 13.4662 1.00563 14.694 1.68466C17.5091 3.24122 19.2344 5.60327 19.8422 8.7685C19.915 9.1494 19.9479 9.53797 20 9.9227ZM12.6032 13.291C12.6293 13.3861 12.6461 13.4489 12.6638 13.511C12.955 14.5418 14.0564 14.9917 14.9822 14.4506C15.5731 14.105 15.9042 13.5508 16.0889 12.9216C16.6768 10.9213 16.5342 8.9808 15.4873 7.15523C14.6756 5.74045 13.4478 4.82614 11.8828 4.38852C10.4511 3.98769 9.02246 4.05054 7.62755 4.57169C6.13072 5.1304 4.9987 6.12135 4.29665 7.55682C3.43135 9.32568 3.33784 11.1566 4.01614 13.0082C4.4645 14.2322 5.25315 15.207 6.36141 15.8922C7.77778 16.7667 9.31907 17.0916 10.9615 16.7467C11.5034 16.6333 12.0276 16.4241 12.5457 16.2218C12.8354 16.1083 12.9228 15.7826 12.7933 15.5136C12.6699 15.2561 12.381 15.1473 12.0989 15.2538C12.0138 15.286 11.9311 15.3243 11.8475 15.3603C10.7937 15.8225 9.70305 15.9183 8.58559 15.6592C7.17996 15.3335 6.07323 14.5786 5.35279 13.3148C4.61012 12.0127 4.48826 10.6178 4.84311 9.18083C5.23399 7.59744 6.16521 6.43481 7.64672 5.73432C8.68293 5.24459 9.77739 5.1212 10.9025 5.28214C12.2484 5.47528 13.3827 6.08227 14.1974 7.17592C15.4551 8.86507 15.6145 10.7473 15.0182 12.7178C14.9378 12.9829 14.7485 13.2435 14.5438 13.4367C14.1943 13.7662 13.7659 13.5945 13.6785 13.1217C13.654 12.9883 13.6517 12.8496 13.6517 12.7132C13.6502 11.2225 13.6509 9.73187 13.6502 8.24199C13.6502 8.15768 13.6502 8.07261 13.6417 7.98831C13.6172 7.75762 13.49 7.60587 13.27 7.53536C13.0477 7.46485 12.8607 7.53383 12.7067 7.70014C12.6653 7.74459 12.6331 7.79747 12.5933 7.85189C11.7372 7.02034 10.7178 6.68696 9.55283 6.79502C8.62162 6.88086 7.82299 7.25716 7.20065 7.96302C6.39284 8.8804 6.12995 9.96562 6.284 11.1581C6.6105 13.6804 9.0079 14.9058 11.219 14.1686C11.7387 13.9954 12.1893 13.7049 12.604 13.291H12.6032Z" fill="#B90707"/>
<path d="M9.94283 13.3055C8.37472 13.3071 7.23963 12.0954 7.31857 10.4959C7.37222 9.41452 7.80909 8.55079 8.82768 8.08942C10.3621 7.39352 12.3088 8.20208 12.5418 10.2032C12.6223 10.896 12.5119 11.5528 12.141 12.1506C11.6857 12.884 10.8748 13.304 9.94283 13.3048V13.3055Z" fill="#B90707"/>
</symbol><symbol id="error" viewBox="0 0 50 50">
<circle style="fill:#D75A4A;" cx="25" cy="25" r="25"/>
<polyline style="fill:none;stroke:#FFFFFF;stroke-width:2;stroke-linecap:round;stroke-miterlimit:10;" points="16,34 25,25 34,16 
	"/>
<polyline style="fill:none;stroke:#FFFFFF;stroke-width:2;stroke-linecap:round;stroke-miterlimit:10;" points="16,16 25,25 34,34 
	"/>
</symbol><symbol id="instagram" viewBox="0 0 35 36">
<path d="M34.9879 17.5374C34.9879 18.4007 34.9867 19.2628 34.9879 20.126C34.9903 20.9245 35.0011 21.7229 34.9999 22.5201C34.9963 23.7772 35.0059 25.0343 34.9699 26.2913C34.9495 27.0141 34.779 27.7189 34.5665 28.4141C34.2315 29.5115 33.7032 30.5092 32.9948 31.4001C31.8998 32.7772 30.5335 33.811 28.873 34.4209C27.8321 34.8027 26.7563 35.0152 25.6421 35.014C24.1305 35.014 22.6189 35.0164 21.1072 35.0152C19.3315 35.0152 17.5557 35.0128 15.78 35.0092C13.5456 35.0056 11.31 35.002 9.07557 34.996C7.75966 34.9924 6.5266 34.643 5.34756 34.0811C3.63304 33.2647 2.29434 32.0268 1.32062 30.4023C0.690281 29.3506 0.280838 28.2124 0.0971395 26.9937C-0.000112806 26.3526 0.0082882 25.7114 0.00348562 25.0691C-0.00371826 23.8168 0.00228497 22.5645 0.00348562 21.3123C0.00348562 20.1152 0.00348562 18.9182 0.00348562 17.7211C0.00348562 16.5241 0.00348562 15.327 0.00348562 14.13C0.00348562 12.933 -0.000115149 11.7359 0.00468743 10.5389C0.00828937 9.8509 -0.0133105 9.15933 0.0467218 8.47616C0.158382 7.21668 0.529368 6.02564 1.1441 4.91865C2.12022 3.1621 3.5106 1.83539 5.31156 0.948109C6.16522 0.527883 7.06811 0.25654 8.01061 0.110061C8.74541 -0.0040004 9.48259 0.0080043 10.2198 0.00320172C11.2271 -0.00400215 12.2345 0.00320172 13.243 0.00320172C15.1989 0.00440237 17.1535 0.00680718 19.1094 0.00680718C20.9356 0.00680718 22.7605 -0.000400215 24.5867 0.00320172C25.2098 0.00440237 25.8342 0.00920671 26.4561 0.0500287C27.377 0.111262 28.2643 0.340587 29.1156 0.697178C31.5073 1.70092 33.2194 3.39863 34.2567 5.77591C34.6553 6.6884 34.8727 7.64651 34.9675 8.63465C34.9831 8.79793 34.9807 8.96362 34.9807 9.12811C34.9831 10.5245 34.9831 11.922 34.9867 13.3184C34.9891 14.0712 34.9963 14.8252 34.9987 15.578C35.0011 16.2311 34.9987 16.8843 34.9987 17.5386H34.9855L34.9879 17.5374ZM32.3225 17.5266C32.3225 17.5266 32.3285 17.5266 32.3321 17.5266C32.3321 16.823 32.3321 16.1195 32.3321 15.4171C32.3297 13.5321 32.3225 11.6459 32.3249 9.76085C32.3249 9.04407 32.2769 8.33688 32.086 7.64291C31.7438 6.40505 31.1026 5.34848 30.1613 4.47801C29.0447 3.44546 27.7288 2.84033 26.21 2.72026C25.5652 2.66864 24.9145 2.67464 24.2661 2.67464C22.53 2.67224 20.7939 2.68304 19.059 2.68184C17.198 2.68184 15.3382 2.67464 13.4772 2.67223C12.2597 2.66983 11.0422 2.68184 9.82598 2.66743C8.31196 2.64943 6.90722 2.9772 5.63934 3.84407C4.65481 4.51643 3.91279 5.3917 3.3713 6.43986C2.85863 7.434 2.65933 8.50497 2.65692 9.61677C2.65572 10.5052 2.66173 11.3925 2.66173 12.281C2.66173 13.478 2.66173 14.6751 2.66173 15.8733C2.66173 17.0704 2.66173 18.2674 2.66173 19.4657C2.66173 20.6627 2.66173 21.8598 2.66173 23.058C2.66173 23.9117 2.66054 24.7641 2.67135 25.6178C2.68575 26.8328 2.97509 27.9759 3.60783 29.0204C4.56954 30.6077 5.94791 31.6474 7.74167 32.1289C8.49087 32.3294 9.25686 32.345 10.0265 32.3402C11.4733 32.3306 12.92 32.3438 14.3668 32.3438C16.0681 32.3438 17.7695 32.3366 19.4696 32.3366C21.4698 32.3366 23.4701 32.3402 25.4704 32.3426C26.3985 32.3438 27.2966 32.1877 28.1539 31.8311C29.4469 31.2932 30.4735 30.4288 31.2419 29.2569C31.9035 28.2484 32.2456 27.1366 32.3129 25.9396C32.3405 25.4425 32.3201 24.943 32.3213 24.4435C32.3213 23.0868 32.3225 21.7301 32.3237 20.3734C32.3237 19.426 32.3237 18.4775 32.3237 17.5302L32.3225 17.5266Z" fill="#881717"/>
<path d="M17.5266 9.44446C21.616 9.39883 25.4233 12.6874 25.5661 17.2607C25.7054 21.7535 22.1851 25.5427 17.5434 25.5835C13.1262 25.622 9.61554 22.1173 9.43304 17.8778C9.22773 13.086 13.1346 9.37002 17.5266 9.44446ZM22.8839 17.5128C22.9331 14.7597 20.6639 12.0042 17.2529 12.1171C14.5322 12.2071 12.2269 14.5148 12.1033 17.2439C11.9568 20.4724 14.6246 23.025 17.7223 22.9001C20.539 22.786 22.9079 20.4388 22.8851 17.5128H22.8839Z" fill="#881717"/>
<path d="M28.2725 8.75063C28.2472 9.70634 27.5208 10.7857 26.2818 10.7629C25.1808 10.7437 24.2815 10.0161 24.2383 8.73622C24.2023 7.66885 25.1724 6.72995 26.2458 6.72754C27.3443 6.72514 28.2689 7.64723 28.2713 8.74943L28.2725 8.75063Z" fill="#881717"/>
</symbol><symbol id="like" viewBox="0 0 18 16">
<path d="M0 4.3875C0.0449108 4.1013 0.0805753 3.81327 0.136053 3.52889C0.36369 2.36217 0.938284 1.43098 1.90607 0.775495C2.48991 0.380197 3.14068 0.1757 3.82491 0.0679748C4.9578 -0.110503 6.03082 0.0538244 7.02238 0.667769C7.67271 1.07037 8.27945 1.53551 8.82806 2.0787C8.88222 2.13211 8.93726 2.18506 8.99538 2.24166C9.18735 2.06318 9.36391 1.88653 9.5528 1.72494C10.1868 1.18403 10.8429 0.677355 11.6081 0.344136C12.5812 -0.0799198 13.5802 -0.0707905 14.5907 0.149682C15.6902 0.389782 16.5902 0.954429 17.2304 1.9267C17.6764 2.60455 17.8767 3.36913 17.9661 4.17661C18.1198 5.56016 17.7345 6.78896 17.0032 7.92601C16.5686 8.60113 16.0521 9.20366 15.4898 9.76557C13.5072 11.7462 11.524 13.7259 9.54003 15.7051C9.14772 16.0967 8.8514 16.0976 8.46261 15.7092C6.33243 13.5812 4.18463 11.4718 2.08087 9.31549C1.06069 8.26973 0.299406 7.03545 0.0519557 5.52455C0.0374257 5.43646 0.0176121 5.34973 0 5.26209C0 4.97041 0 4.67873 0 4.3875ZM9.00198 14.3932C9.06406 14.333 9.11118 14.2878 9.15741 14.2417C11.0005 12.4003 12.8524 10.5676 14.681 8.71068C15.1345 8.25056 15.5466 7.73658 15.9205 7.20389C16.6139 6.2161 16.868 5.10552 16.6254 3.89406C16.4893 3.21576 16.2441 2.59496 15.7162 2.13165C14.8325 1.35612 13.0228 0.991403 11.7107 1.76968C10.8821 2.26083 10.1745 2.89577 9.52638 3.61197C9.19571 3.9776 8.81882 3.96527 8.47362 3.62018C8.02319 3.17011 7.56219 2.73008 7.08535 2.31059C6.67234 1.94678 6.19065 1.69618 5.68122 1.50036C5.09342 1.27395 4.49285 1.30454 3.89491 1.40679C3.16313 1.53231 2.46349 1.79432 2.01086 2.42972C1.15844 3.62612 1.07214 4.94941 1.59962 6.31013C1.95714 7.2331 2.57709 7.97577 3.25824 8.65955C5.12292 10.5306 6.99376 12.3948 8.86241 14.2617C8.90379 14.3033 8.94738 14.3421 9.00154 14.3928L9.00198 14.3932Z" fill="#616161"/>
</symbol><symbol id="location" viewBox="0 0 15 21">
<path d="M7.88735 0C8.08297 0.0269403 8.27858 0.0484926 8.4742 0.078127C10.9572 0.457986 12.8456 1.77537 14.0428 4.03566C15.2374 6.28788 15.3104 8.64246 14.2671 10.9917C13.2082 13.3732 11.8023 15.5419 10.2817 17.6298C9.50707 18.6939 8.68286 19.7203 7.87691 20.7602C7.63174 21.0781 7.36309 21.0781 7.11531 20.7764C5.19043 18.4353 3.41943 15.9729 1.90143 13.3274C1.3537 12.371 0.832053 11.3931 0.451249 10.3478C-0.0130178 9.06273 -0.117347 7.73727 0.130435 6.39564C0.636434 3.67197 2.14661 1.75382 4.5827 0.616934C5.32605 0.269403 6.11896 0.080821 6.94056 0.0323284C6.99272 0.0296344 7.04228 0.0107761 7.09444 0C7.35787 0 7.62391 0 7.88735 0ZM7.48568 11.7433C9.62444 11.7487 11.3798 9.93829 11.3772 7.72919C11.3772 5.52547 9.64791 3.73663 7.50133 3.71777C5.37039 3.69891 3.60722 5.50661 3.5994 7.7211C3.59157 9.92752 5.33649 11.7352 7.48568 11.7406V11.7433Z" fill="#B90707"/>
</symbol><symbol id="site-icon" viewBox="0 0 29 35">
<path d="M28.9899 15.2996C28.7912 10.7958 27.2762 6.94672 24.6074 4.17C22.022 1.48183 18.4739 0 14.6227 0C10.7715 0 7.18048 1.47804 4.54135 4.16319C1.78071 6.97624 0.222004 10.8579 0.0334954 15.3904L0 34.2417C0 34.4377 0.0740014 34.6208 0.211878 34.7646C0.356765 34.9115 0.561632 35 0.770394 35H9.96994C9.45193 34.6208 8.98377 34.1826 8.57638 33.6915C7.5092 32.4064 6.86967 30.774 6.86967 28.9985C6.86967 25.0155 10.0915 21.7468 14.1389 21.5281C14.1685 21.5266 14.1989 21.5251 14.2285 21.5243C14.3423 21.5198 14.456 21.516 14.5713 21.516C14.6975 21.516 14.8221 21.5198 14.9467 21.5251C14.9662 21.5251 14.9857 21.5273 15.0052 21.5281C19.0526 21.7476 22.2768 25.0155 22.2768 28.9985C22.2768 30.7748 21.6372 32.4064 20.5701 33.6915C20.1627 34.1819 19.6945 34.6201 19.1765 35H28.2249C28.6526 35 28.9992 34.6602 28.9992 34.2417V15.4169C28.9992 15.3775 28.9961 15.3382 28.9891 15.2988L28.9899 15.2996ZM19.9765 23.2203C19.8386 23.0992 19.6953 22.9834 19.5496 22.8714C20.8645 17.8455 22.2986 12.8695 23.7108 7.97976C23.9142 7.2729 24.1182 6.56226 24.3231 5.85162C24.7141 6.33068 25.0717 6.84001 25.3965 7.37659C25.3716 7.44848 25.3459 7.52038 25.321 7.59228C23.5138 12.7174 21.6762 17.9371 19.9773 23.2203H19.9765ZM25.7143 7.93208C26.008 8.47244 26.2705 9.03853 26.4995 9.62884C24.5459 14.346 22.5806 19.1374 20.7336 23.987C20.616 23.8515 20.4937 23.7198 20.3675 23.5927C22.0657 18.3011 23.904 13.07 25.7143 7.93208ZM26.7449 10.3069C26.9389 10.8844 27.1024 11.483 27.2364 12.1006C25.2532 16.2955 23.2731 20.548 21.3802 24.8482C21.2867 24.7044 21.1893 24.5644 21.0865 24.4267C22.8968 19.6595 24.8232 14.9477 26.7449 10.3069ZM27.3907 12.9051C27.4904 13.4916 27.5636 14.0932 27.6095 14.7093C25.6762 18.3571 23.7537 22.0488 21.8951 25.7761C21.8289 25.6353 21.7595 25.4968 21.6855 25.3606C23.5262 21.161 25.4542 17.0062 27.3907 12.9051ZM27.6539 15.6613V17.3702C25.8374 20.4701 24.0341 23.5987 22.2744 26.7531C22.2339 26.6222 22.1903 26.4927 22.1428 26.3648C23.9336 22.7617 25.786 19.1918 27.6539 15.6613ZM27.6547 21.494C25.9597 23.9196 24.274 26.3611 22.6094 28.8146C22.607 28.7253 22.6047 28.6368 22.6 28.5482C24.2608 25.8517 25.9511 23.1726 27.6547 20.5132V21.4933V21.494ZM22.579 29.7251C24.2507 27.2488 25.9472 24.7854 27.6555 22.3371V23.0803C25.9465 25.3394 24.2452 27.6083 22.5619 29.8885C22.5681 29.834 22.5743 29.7796 22.579 29.7251ZM27.6555 25.5982C26.149 27.3184 24.6448 29.0409 23.1469 30.7679C24.6425 28.9047 26.1467 27.0482 27.6555 25.1963V25.5982ZM24.0287 30.4872C25.2345 29.0992 26.445 27.7135 27.6555 26.3293V26.6078C26.4458 27.9004 25.236 29.193 24.0294 30.4879C24.024 30.494 24.0185 30.4993 24.0139 30.5053C24.0193 30.4993 24.024 30.4932 24.0294 30.4879L24.0287 30.4872ZM27.6555 27.3124V27.4872C26.7768 28.3681 25.8989 29.249 25.0195 30.13C25.8974 29.1908 26.7761 28.2516 27.6555 27.3131V27.3124ZM27.6539 18.3245V19.6179C25.9223 22.3144 24.2031 25.0314 22.5136 27.7672C22.4949 27.6537 22.4746 27.5409 22.4513 27.4289C24.151 24.3691 25.8951 21.3344 27.6539 18.3245ZM22.3492 30.9829C24.1019 28.605 25.874 26.2369 27.6547 23.8803V24.4327C25.8779 26.6116 24.105 28.7972 22.3469 30.9912C22.3469 30.9882 22.3484 30.9859 22.3492 30.9829ZM23.6236 5.06076C23.7327 5.17352 23.8386 5.28932 23.943 5.40662C23.7085 6.22246 23.474 7.03754 23.2396 7.84883C21.846 12.6818 20.4291 17.598 19.1251 22.5642C18.9631 22.4559 18.7964 22.353 18.6258 22.2561C19.5777 17.5503 20.6254 12.8831 21.6583 8.29232C21.9699 6.90434 22.283 5.50803 22.5946 4.10719C22.9537 4.4031 23.2972 4.72095 23.6236 5.06076ZM16.0373 1.3789C16.6706 1.44626 17.2914 1.55978 17.8959 1.71644C17.6684 4.21692 17.427 6.7053 17.1863 9.17324C16.7944 13.176 16.3995 17.2378 16.0645 21.3245C15.8573 21.2867 15.6478 21.2549 15.4351 21.2329C15.5154 17.4028 15.6439 13.5937 15.7717 9.83545C15.8675 7.03754 15.9609 4.21617 16.0381 1.3789H16.0373ZM17.6708 9.21941C17.9083 6.78022 18.1475 4.3206 18.3734 1.85039C18.9779 2.03354 19.5644 2.26058 20.1292 2.53152C19.8098 4.57489 19.4842 6.60919 19.1578 8.62834C18.47 12.8982 17.7728 17.2332 17.1496 21.6015C16.9518 21.5364 16.7508 21.4766 16.5459 21.4267C16.8809 17.3203 17.2774 13.2396 17.6708 9.21941ZM19.6392 8.70251C19.9555 6.7333 20.2741 4.75198 20.5856 2.7631C21.1379 3.0575 21.6676 3.39427 22.1693 3.77192C21.8406 5.25148 21.5103 6.72649 21.1808 8.19167C20.1588 12.7386 19.1212 17.3589 18.1786 22.02C17.9956 21.9307 17.8086 21.8467 17.6178 21.771C18.2433 17.3717 18.9467 13.0034 19.6392 8.70251ZM13.4714 10.5764C13.575 14.0864 13.6801 17.6457 13.8227 21.2224C13.6116 21.2413 13.4036 21.2693 13.198 21.3041C12.8614 17.9741 12.5553 14.6601 12.2539 11.3884C11.9602 8.18864 11.6611 4.95935 11.3323 1.71568C11.9337 1.56129 12.5499 1.44928 13.1777 1.38117C13.293 4.46515 13.3841 7.534 13.4722 10.5756L13.4714 10.5764ZM10.6749 12.3344C10.1701 9.08318 9.66147 5.80092 9.12165 2.50805C9.68095 2.2462 10.2605 2.02521 10.8572 1.84736C11.1812 5.06076 11.4772 8.26054 11.7693 11.43C12.0716 14.7191 12.3801 18.0521 12.7181 21.3994C12.5179 21.4456 12.3208 21.4978 12.1269 21.5584C11.6237 18.4623 11.1462 15.3783 10.6749 12.3344ZM11.6611 21.7196C11.4772 21.7892 11.2957 21.8641 11.1181 21.9466C10.477 19.0723 9.8531 16.2108 9.2385 13.3826C8.54288 10.1753 7.83714 6.93991 7.1057 3.69473C7.60267 3.33524 8.12458 3.01436 8.66674 2.73358C9.19487 5.97574 9.69575 9.20503 10.1935 12.4048C10.6694 15.4797 11.1524 18.5932 11.6611 21.7203V21.7196ZM6.67882 4.01788C7.3908 7.18966 8.08018 10.3493 8.76099 13.4825C9.38494 16.3515 10.0175 19.2569 10.6702 22.1737C10.5066 22.2622 10.347 22.356 10.1912 22.4552C9.4309 19.7897 8.68933 17.1356 7.95554 14.5125C7.09713 11.4429 6.23014 8.34832 5.33979 5.24315C5.39587 5.18336 5.45196 5.12433 5.5096 5.06606C5.87961 4.68993 6.26987 4.34028 6.67805 4.01788H6.67882ZM4.95654 5.66848C5.81729 8.67224 6.65546 11.6669 7.48583 14.6366C8.23441 17.3134 8.9939 20.0205 9.76741 22.742C9.6272 22.8442 9.49166 22.9517 9.35846 23.0629C8.52419 20.6616 7.70316 18.2701 6.89304 15.9081C5.89441 12.9989 4.88643 10.067 3.86054 7.12457C4.19393 6.61297 4.56005 6.1271 4.95654 5.66923V5.66848ZM4.46735 29.0069C3.4399 27.9761 2.4031 26.934 1.35929 25.8858V25.5263C2.70222 26.9756 4.04048 28.4211 5.37017 29.8598C5.06949 29.5745 4.76803 29.2914 4.46735 29.0076V29.0069ZM1.36163 24.8157V24.3517C3.1509 26.436 4.93161 28.5127 6.69986 30.5787C6.69986 30.581 6.70064 30.584 6.70141 30.5863C4.93317 28.6731 3.1509 26.7485 1.36163 24.8164V24.8157ZM6.61651 27.8921C4.87553 25.4885 3.12598 23.0773 1.36864 20.6623L1.3702 19.6822C3.14156 22.3523 4.90279 25.0155 6.6539 27.6673C6.64066 27.7422 6.62741 27.8172 6.61651 27.8928V27.8921ZM6.54406 28.6148C6.54095 28.6708 6.54095 28.7276 6.53939 28.7844C4.83424 26.6244 3.10884 24.4426 1.36552 22.2418L1.36708 21.4819C3.10027 23.8651 4.82567 26.2438 6.54406 28.6148ZM6.55731 29.5866C6.55964 29.6176 6.56198 29.6486 6.56432 29.6797C4.84047 27.6666 3.10572 25.6436 1.36318 23.6139V23.0167C3.11507 25.2266 4.84748 27.4191 6.55731 29.5866ZM1.37097 18.8089L1.37331 17.5291C3.02471 20.2824 4.66443 23.0266 6.2948 25.7549C6.48954 26.0795 6.68428 26.4065 6.8798 26.7334C6.85098 26.8242 6.82449 26.9158 6.79956 27.0089C5.00094 24.2859 3.19141 21.5508 1.37175 18.8089H1.37097ZM6.71544 25.5157C4.94797 22.5566 3.16804 19.5786 1.37487 16.5922L1.37643 15.4298C1.38344 15.2701 1.39201 15.1119 1.40213 14.9545C2.78401 17.5269 4.15576 20.0924 5.51817 22.6429C6.0837 23.7009 6.65312 24.765 7.22488 25.8351C7.17814 25.9373 7.13374 26.0409 7.09167 26.1454C6.96626 25.935 6.84085 25.7246 6.71544 25.5157ZM5.95127 22.4226C4.47124 19.6527 2.98187 16.8669 1.48003 14.0736C1.5439 13.4938 1.63193 12.9278 1.74566 12.3768C2.96395 14.9446 4.16979 17.5034 5.36705 20.0478C6.13355 21.6742 6.90784 23.3179 7.68836 24.9701C7.61981 25.0798 7.55438 25.191 7.49206 25.3046C6.97561 24.3389 6.46149 23.377 5.95127 22.4234V22.4226ZM5.81106 19.8495C4.52577 17.1189 3.23036 14.3717 1.92092 11.6155C2.06892 11.032 2.24653 10.4659 2.45217 9.91945C3.54817 12.5834 4.63093 15.239 5.7059 17.878C6.55107 19.9539 7.40638 22.0511 8.26947 24.1595C8.17833 24.2715 8.0903 24.385 8.0054 24.5016C7.26772 22.9411 6.53627 21.3873 5.81106 19.8487V19.8495ZM8.62701 23.7471C7.79508 21.7173 6.97171 19.6989 6.15848 17.7009C5.02041 14.9083 3.87456 12.0953 2.71235 9.2739C2.9546 8.71008 3.2288 8.16896 3.53337 7.65206C4.51331 10.4659 5.47611 13.2713 6.43267 16.0571C7.26538 18.485 8.109 20.9416 8.96586 23.4103C8.85057 23.52 8.73684 23.6313 8.62857 23.7471H8.62701ZM14.3111 21.1943C14.1678 17.623 14.0618 14.069 13.9598 10.5635C13.8702 7.51205 13.7798 4.43261 13.6638 1.33803C13.9808 1.31533 14.301 1.30398 14.6235 1.30398C14.946 1.30398 15.2451 1.31533 15.5528 1.33652C15.4764 4.18287 15.3806 7.01332 15.2848 9.81956C15.1571 13.5703 15.0285 17.3725 14.9475 21.1974C14.8237 21.1921 14.699 21.1883 14.5736 21.1883C14.4856 21.1883 14.3991 21.1921 14.3119 21.1951L14.3111 21.1943Z" fill="#451212"/>
</symbol><symbol id="success" viewBox="0 0 50 50">
<circle style="fill:#25AE88;" cx="25" cy="25" r="25"/>
<polyline style="fill:none;stroke:#FFFFFF;stroke-width:2;stroke-linecap:round;stroke-linejoin:round;stroke-miterlimit:10;" points="
	38,15 22,33 12,25 "/>
</symbol><symbol id="tel" viewBox="0 0 19 20">
<path d="M0 4.45114C0.0306872 3.43991 0.389216 2.69326 1.13696 2.17741C1.89749 1.65285 2.68309 1.16259 3.4697 0.677446C4.05327 0.31768 4.77903 0.556671 5.02657 1.19688C5.56871 2.5996 6.0909 4.01001 6.61412 5.41939C6.73738 5.75152 6.68112 6.0729 6.4883 6.36972C6.20752 6.80318 5.93184 7.24022 5.64492 7.67009C5.3406 8.12556 5.34674 8.56618 5.64492 9.02574C6.92662 10.9965 8.55151 12.6213 10.5267 13.8961C10.9518 14.1704 11.3737 14.1812 11.7992 13.9074C12.2335 13.628 12.6697 13.3516 13.0988 13.0635C13.4507 12.8271 13.8128 12.7933 14.2072 12.9422C15.5298 13.4427 16.8555 13.935 18.1786 14.434C18.9928 14.741 19.2281 15.4555 18.7617 16.1857C18.329 16.8628 17.9004 17.5429 17.4631 18.2169C16.8851 19.1084 16.0637 19.5823 14.9994 19.4999C14.4793 19.4599 13.9617 19.3018 13.4574 19.1493C9.73962 18.0245 6.66424 15.9206 4.15249 12.9765C2.18289 10.6675 0.829067 8.03651 0.107917 5.08419C0.0490996 4.84417 0.0240383 4.59546 0 4.45063V4.45114Z" fill="#B90707"/>
<path d="M10.5228 0.512939C14.307 0.578444 17.6775 3.21758 18.6886 6.91297C18.8866 7.6366 18.9904 8.37353 18.9996 9.12325C19.0057 9.62477 18.6984 9.9743 18.2473 9.97993C17.7926 9.98556 17.4765 9.64831 17.4683 9.14781C17.4141 5.84954 15.2338 3.06712 12.0438 2.2739C11.4741 2.13214 10.8736 2.10911 10.2849 2.05179C9.89214 2.01341 9.57453 1.7345 9.54333 1.35478C9.5106 0.956633 9.76735 0.607614 10.1607 0.532386C10.2783 0.509869 10.4016 0.518569 10.5228 0.512939Z" fill="#B90707"/>
<path d="M10.4321 3.62378C13.2671 3.67956 15.6352 5.90468 15.8679 8.71218C15.8812 8.87134 15.8945 9.03049 15.8945 9.18965C15.8945 9.63078 15.5712 9.96906 15.1498 9.97827C14.7192 9.98748 14.3775 9.65535 14.3698 9.20551C14.3494 8.05764 13.9387 7.07814 13.1106 6.28185C12.3404 5.54133 11.4136 5.17031 10.3467 5.15189C10.0337 5.14626 9.78823 5.02446 9.63684 4.74709C9.49721 4.49121 9.50642 4.2297 9.6619 3.98252C9.845 3.69184 10.1243 3.59819 10.4327 3.62327L10.4321 3.62378Z" fill="#B90707"/>
<path d="M12.7949 9.15635C12.8011 9.61386 12.4927 9.96237 12.0671 9.97925C11.6176 9.99768 11.2872 9.67476 11.2636 9.19422C11.2376 8.66199 10.8545 8.28176 10.3185 8.25668C9.85049 8.23468 9.52981 7.90715 9.54157 7.46448C9.55334 7.03 9.90419 6.71732 10.3722 6.72499C11.6738 6.747 12.7781 7.85495 12.7949 9.15635Z" fill="#B90707"/>
</symbol><symbol id="telegram" viewBox="0 0 35 35">
<path d="M17.5361 0C27.8949 0.161567 35.0487 8.42163 34.9997 17.5483C34.9467 27.4602 27.0517 35.3014 16.9429 34.9873C7.41329 34.6913 -0.147062 27.0331 0.00217176 16.9654C0.448229 7.39015 7.89964 0.117989 17.5361 0ZM17.2253 23.1193C17.3014 23.1719 17.3643 23.2126 17.4243 23.257C18.7592 24.247 20.0899 25.2427 21.4318 26.2228C21.6304 26.3679 21.8733 26.4678 22.111 26.5402C22.4777 26.6524 22.8 26.5061 22.9673 26.1632C23.0647 25.9634 23.1383 25.7459 23.1848 25.528C23.6995 23.1275 24.206 20.7254 24.717 18.3241C25.1742 16.1752 25.6416 14.0288 26.084 11.877C26.1349 11.6283 26.1103 11.3356 26.0297 11.0939C25.8578 10.5783 25.3875 10.4435 24.7672 10.6828C21.6032 11.9042 18.4397 13.126 15.2758 14.3474C13.0476 15.2075 10.8185 16.0646 8.59195 16.9288C8.21167 17.0764 7.83427 17.2371 7.47167 17.4229C7.23898 17.5422 7.06385 17.7461 7.11482 18.0367C7.1621 18.306 7.39931 18.3841 7.62337 18.4528C9.06514 18.8931 10.5073 19.3321 11.9516 19.763C12.0416 19.7897 12.1707 19.777 12.2509 19.7301C12.6336 19.5048 13.0052 19.2606 13.3814 19.0238C16.3324 17.1664 19.2825 15.3086 22.2364 13.4561C22.34 13.3912 22.4764 13.3665 22.601 13.3517C22.6623 13.3443 22.763 13.3866 22.7872 13.4356C22.8086 13.4791 22.7663 13.5799 22.7219 13.6251C22.5685 13.7813 22.402 13.924 22.2409 14.072C20.8628 15.3333 19.4852 16.5958 18.1059 17.8558C16.9589 18.9038 15.8094 19.948 14.6637 20.9971C14.6131 21.0432 14.5683 21.1192 14.5613 21.1854C14.5243 21.546 14.4996 21.9078 14.4717 22.2691C14.4096 23.0671 14.3475 23.8647 14.2867 24.6626C14.2641 24.9582 14.2456 25.2542 14.2246 25.5642C14.6563 25.5243 14.9588 25.3072 15.2335 25.0437C15.895 24.4086 16.5527 23.7697 17.2249 23.1197L17.2253 23.1193Z" fill="#881717"/>
</symbol><symbol id="viber" viewBox="0 0 35 41">
<path d="M34.9968 17.115C34.923 19.1543 34.9102 21.1983 34.7586 23.2327C34.583 25.5831 34.174 27.9022 32.9544 29.9759C31.8582 31.8395 30.2038 32.9469 28.0708 33.2781C25.969 33.6037 23.8616 33.894 21.7502 34.1442C20.8401 34.2524 19.9139 34.222 18.9949 34.2516C18.5282 34.2669 18.0607 34.2877 17.594 34.2821C16.4344 34.2677 15.2717 34.2829 14.1161 34.2043C12.8154 34.1153 11.5212 33.9389 10.2245 33.7954C9.92461 33.7625 9.83239 33.9678 9.75059 34.1851C9.40497 35.1033 9.05695 36.0198 8.72176 36.9412C8.28392 38.1489 7.86131 39.3613 7.42107 40.5682C7.38418 40.6684 7.26149 40.7366 7.1789 40.82C7.11555 40.719 7.00329 40.6211 6.99767 40.5169C6.97522 40.0927 6.98003 39.6669 6.98404 39.2419C6.99767 37.6926 7.01932 36.1441 7.02574 34.5949C7.02734 34.2765 7.00087 33.9533 6.93993 33.6414C6.88219 33.3463 6.73706 33.0825 6.38422 33.0456C4.50296 32.8499 3.11487 31.8852 2.13014 30.3047C1.25928 28.9078 0.827856 27.3569 0.537568 25.7531C0.170298 23.7267 0.0708582 21.6795 0.0419898 19.6266C0.0179328 17.9057 -0.0229597 16.184 0.0163333 14.464C0.0716644 12.0142 0.248886 9.57158 0.859933 7.18352C1.2272 5.74732 1.72198 4.36725 2.70591 3.21412C3.18304 2.6544 3.77083 2.26467 4.44924 1.99443C6.64323 1.12197 8.91341 0.547005 11.2638 0.328086C12.8547 0.179735 14.4505 0.0570448 16.0471 0.0169498C17.5779 -0.0215414 19.1152 0.00411937 20.6428 0.108366C22.3268 0.223038 24.0019 0.471627 25.6827 0.638422C27.6145 0.830076 29.3995 1.474 31.1156 2.34326C32.0241 2.80355 32.6031 3.583 33.0666 4.44905C33.8573 5.92695 34.2631 7.53155 34.5357 9.17384C34.9727 11.8041 34.9487 14.4584 35 17.1142L34.9968 17.115ZM9.21011 4.89571L9.17563 4.79467C8.63194 4.98953 8.06661 5.13948 7.54858 5.38807C5.58393 6.33351 4.43159 8.22118 5.11802 10.444C5.54062 11.8145 6.15647 13.14 6.80762 14.4231C8.72175 18.196 11.3239 21.4365 14.5508 24.1774C17.3197 26.5293 20.4094 28.3521 23.7397 29.7778C24.3724 30.0489 25.0332 30.2317 25.7469 30.0369C27.5504 29.5453 28.8575 28.4419 29.6882 26.7948C30.2904 25.6007 30.1389 24.8301 29.1469 23.9424C28.4838 23.349 27.7637 22.815 27.0363 22.3001C26.2457 21.7412 25.4502 21.1751 24.597 20.7252C23.7782 20.2946 22.9042 20.3603 22.1696 20.9786C21.7991 21.2905 21.4952 21.6899 21.1945 22.0756C20.7663 22.6257 20.2218 22.94 19.5394 22.7741C18.9428 22.6289 18.3486 22.4068 17.8033 22.1237C15.307 20.8238 13.4498 18.9105 12.3768 16.2843C12.0208 15.4134 11.9454 14.5385 12.6398 13.7856C12.9245 13.4768 13.291 13.2403 13.6302 12.9837C14.2869 12.4865 14.8619 11.6188 14.3487 10.5427C13.4538 8.66784 12.2405 7.03036 10.781 5.5693C10.3608 5.1483 9.84682 4.85882 9.21172 4.8941L9.21011 4.89571ZM18.5803 4.58136C18.367 4.57174 18.1537 4.55169 17.9412 4.5541C17.6413 4.55811 17.3991 4.65995 17.2973 4.9783C17.1321 5.49152 17.363 5.80666 17.9941 5.85317C19.3686 5.95421 20.6925 6.27818 21.9763 6.75611C24.2457 7.60051 26.0179 9.02468 27.0933 11.2427C27.9457 13.0005 28.3691 14.8633 28.4918 16.8031C28.5287 17.3837 28.7019 17.5938 29.1638 17.5922C29.6128 17.5914 29.8005 17.3556 29.8069 16.7758C29.8213 15.5193 29.7091 14.2795 29.3402 13.0711C28.5608 10.5194 27.0893 8.44251 24.9658 6.84833C23.083 5.43458 20.9652 4.61745 18.5819 4.58216L18.5803 4.58136ZM26.6827 15.1849C26.6971 15.1833 26.7116 15.1809 26.726 15.1793C26.6675 14.6917 26.6474 14.1969 26.5448 13.719C26.1246 11.772 25.026 10.2692 23.4382 9.10488C22.1038 8.12656 20.5835 7.67028 18.9508 7.54358C18.6517 7.52032 18.3983 7.58447 18.2644 7.89721C18.0358 8.42727 18.2684 8.77209 18.881 8.91563C19.7799 9.12573 20.6885 9.327 21.557 9.63253C23.3051 10.2484 24.4446 11.4817 24.9145 13.282C25.1278 14.0983 25.2537 14.9379 25.4069 15.7695C25.4927 16.2346 25.6771 16.4262 26.066 16.4038C26.5167 16.3781 26.6795 16.1945 26.6819 15.7061C26.6827 15.5329 26.6819 15.3589 26.6819 15.1857L26.6827 15.1849ZM20.1208 10.671C20.0141 10.671 19.9066 10.6646 19.8008 10.6718C19.3782 10.6999 19.1456 10.9404 19.112 11.3502C19.0783 11.7672 19.375 11.8586 19.6773 11.9428C19.8305 11.9853 19.9917 11.9997 20.1472 12.035C21.3284 12.3045 22.0982 12.9941 22.3508 14.2066C22.407 14.4776 22.4382 14.7567 22.5192 15.0197C22.6082 15.3092 22.8159 15.5016 23.1383 15.4784C23.4486 15.4567 23.6579 15.2787 23.7125 14.9652C23.751 14.7454 23.7886 14.5161 23.7686 14.2964C23.6531 13.0647 22.9811 12.1385 22.0525 11.3991C21.5016 10.9605 20.8673 10.6413 20.1208 10.6694V10.671Z" fill="#881717"/>
</symbol></svg>