<svg width="35" height="35" viewBox="0 0 35 35" fill="none" xmlns="http://www.w3.org/2000/svg">
<path d="M17.5361 0C27.8949 0.161567 35.0487 8.42163 34.9997 17.5483C34.9467 27.4602 27.0517 35.3014 16.9429 34.9873C7.41329 34.6913 -0.147062 27.0331 0.00217176 16.9654C0.448229 7.39015 7.89964 0.117989 17.5361 0ZM17.2253 23.1193C17.3014 23.1719 17.3643 23.2126 17.4243 23.257C18.7592 24.247 20.0899 25.2427 21.4318 26.2228C21.6304 26.3679 21.8733 26.4678 22.111 26.5402C22.4777 26.6524 22.8 26.5061 22.9673 26.1632C23.0647 25.9634 23.1383 25.7459 23.1848 25.528C23.6995 23.1275 24.206 20.7254 24.717 18.3241C25.1742 16.1752 25.6416 14.0288 26.084 11.877C26.1349 11.6283 26.1103 11.3356 26.0297 11.0939C25.8578 10.5783 25.3875 10.4435 24.7672 10.6828C21.6032 11.9042 18.4397 13.126 15.2758 14.3474C13.0476 15.2075 10.8185 16.0646 8.59195 16.9288C8.21167 17.0764 7.83427 17.2371 7.47167 17.4229C7.23898 17.5422 7.06385 17.7461 7.11482 18.0367C7.1621 18.306 7.39931 18.3841 7.62337 18.4528C9.06514 18.8931 10.5073 19.3321 11.9516 19.763C12.0416 19.7897 12.1707 19.777 12.2509 19.7301C12.6336 19.5048 13.0052 19.2606 13.3814 19.0238C16.3324 17.1664 19.2825 15.3086 22.2364 13.4561C22.34 13.3912 22.4764 13.3665 22.601 13.3517C22.6623 13.3443 22.763 13.3866 22.7872 13.4356C22.8086 13.4791 22.7663 13.5799 22.7219 13.6251C22.5685 13.7813 22.402 13.924 22.2409 14.072C20.8628 15.3333 19.4852 16.5958 18.1059 17.8558C16.9589 18.9038 15.8094 19.948 14.6637 20.9971C14.6131 21.0432 14.5683 21.1192 14.5613 21.1854C14.5243 21.546 14.4996 21.9078 14.4717 22.2691C14.4096 23.0671 14.3475 23.8647 14.2867 24.6626C14.2641 24.9582 14.2456 25.2542 14.2246 25.5642C14.6563 25.5243 14.9588 25.3072 15.2335 25.0437C15.895 24.4086 16.5527 23.7697 17.2249 23.1197L17.2253 23.1193Z" fill="#881717"/>
</svg>
